<svg width="43" height="55" viewBox="0 0 43 55" fill="none" xmlns="http://www.w3.org/2000/svg">
<path d="M8.40826 32.542L8.85466 25.5112L19.0051 11.847L25.7875 10.5148L8.40826 32.542Z" stroke="#D0A54C" stroke-width="14"/>
<path d="M12.212 37.0327L3.91752 29.9468L4.37145 29.4155L12.666 36.5013L12.212 37.0327ZM7.93376 30.2841C7.57222 30.0425 7.18263 29.9824 6.76499 30.1039C6.34736 30.2254 5.96693 30.487 5.62371 30.8888C5.37275 31.1826 5.20068 31.4802 5.10751 31.7817C5.01617 32.0811 5.00108 32.3633 5.06222 32.6285C5.12521 32.8916 5.26254 33.1135 5.47423 33.2944C5.65135 33.4457 5.83961 33.5337 6.03902 33.5583C6.23811 33.5789 6.43698 33.5582 6.63563 33.4963C6.83212 33.4325 7.0201 33.3502 7.19958 33.2495C7.3769 33.1469 7.53435 33.0479 7.67193 32.9524L8.4291 32.4335C8.62208 32.2994 8.84895 32.1607 9.10971 32.0173C9.37232 31.8717 9.65578 31.7608 9.96009 31.6845C10.2641 31.6042 10.5775 31.5916 10.9002 31.6469C11.2229 31.7021 11.5398 31.8626 11.8508 32.1283C12.2094 32.4346 12.4531 32.8054 12.582 33.2406C12.7128 33.6736 12.7103 34.1423 12.5746 34.6466C12.4408 35.1488 12.1561 35.6548 11.7207 36.1646C11.3147 36.6398 10.8865 36.9857 10.436 37.2025C9.98743 37.4171 9.54109 37.5066 9.097 37.4709C8.65475 37.4331 8.24112 37.2722 7.85609 36.9881L8.56467 36.1587C8.83369 36.3511 9.11302 36.444 9.40266 36.4374C9.69199 36.4267 9.97349 36.3422 10.2472 36.1836C10.5205 36.0211 10.7698 35.8081 10.9949 35.5445C11.2569 35.2378 11.4425 34.92 11.5517 34.591C11.6587 34.2602 11.6834 33.9469 11.6259 33.6512C11.5663 33.3536 11.4155 33.1015 11.1735 32.8949C10.9532 32.7066 10.7213 32.615 10.4779 32.6201C10.2345 32.6251 9.98379 32.6911 9.72578 32.8182C9.46776 32.9453 9.20671 33.0978 8.94262 33.2757L8.01183 33.8929C7.41992 34.284 6.85655 34.5126 6.32173 34.5788C5.78691 34.6451 5.29593 34.4872 4.84881 34.1052C4.47728 33.7878 4.23908 33.4106 4.13421 32.9735C4.02902 32.5324 4.04552 32.0757 4.18371 31.6034C4.32159 31.1271 4.57137 30.6773 4.93304 30.2539C5.2984 29.8262 5.69985 29.5116 6.13739 29.31C6.57276 29.1065 7.00525 29.0201 7.43485 29.0508C7.86629 29.0794 8.25403 29.2313 8.59806 29.5065L7.93376 30.2841ZM17.1998 29.6984C16.9629 29.9669 16.6786 30.1947 16.3467 30.382C16.0148 30.5693 15.6352 30.6747 15.2079 30.6982C14.7784 30.7199 14.3035 30.6262 13.7834 30.4172C13.261 30.2064 12.6931 29.8389 12.0797 29.3149C11.4921 28.813 11.0186 28.3132 10.6591 27.8155C10.2975 27.316 10.0506 26.8286 9.91857 26.3534C9.78436 25.8763 9.76265 25.4206 9.85345 24.9863C9.9461 24.5498 10.152 24.1447 10.4713 23.771C10.7887 23.3995 11.1455 23.1327 11.5418 22.9705C11.9378 22.8044 12.346 22.7421 12.7664 22.7836C13.1867 22.8252 13.5917 22.9656 13.9813 23.205L13.3059 23.9956C12.9451 23.8144 12.576 23.7457 12.1986 23.7894C11.8212 23.8332 11.483 24.03 11.1841 24.38C10.7449 24.894 10.6225 25.49 10.8168 26.1679C11.013 26.8437 11.5141 27.5277 12.3201 28.22L12.3644 28.1681C12.2841 27.8903 12.2502 27.6129 12.2627 27.3359C12.2748 27.0548 12.332 26.7823 12.4342 26.5184C12.5364 26.2545 12.6843 26.0091 12.8781 25.7823C13.2029 25.4021 13.595 25.1355 14.0545 24.9826C14.5118 24.8277 14.988 24.7974 15.483 24.8915C15.9759 24.9837 16.4362 25.2125 16.8639 25.5779C17.2743 25.9285 17.5717 26.3413 17.7561 26.8165C17.9384 27.2898 17.9879 27.7786 17.9046 28.2829C17.821 28.7831 17.586 29.2549 17.1998 29.6984ZM16.4869 29.0894C16.7194 28.8173 16.8599 28.5151 16.9084 28.1828C16.9587 27.8484 16.9228 27.5207 16.8009 27.1999C16.6808 26.8768 16.4804 26.5954 16.1996 26.3555C15.9252 26.1211 15.6232 25.9696 15.2933 25.9008C14.9632 25.828 14.6398 25.8413 14.3232 25.9407C14.0085 26.038 13.7348 26.2227 13.5023 26.4949C13.327 26.7001 13.2048 26.9263 13.1355 27.1736C13.0641 27.419 13.0414 27.6686 13.0674 27.9225C13.0953 28.1742 13.1676 28.4153 13.2845 28.6459C13.3992 28.8747 13.5559 29.0739 13.7546 29.2437C14.0181 29.4688 14.317 29.6176 14.6511 29.6901C14.9871 29.7604 15.3176 29.7476 15.6425 29.6515C15.9693 29.5533 16.2507 29.3659 16.4869 29.0894ZM15.7147 17.6332C15.9494 17.3629 16.2337 17.135 16.5678 16.9495C16.9018 16.7641 17.2825 16.6596 17.7098 16.6361C18.135 16.6108 18.6077 16.7026 19.1279 16.9116C19.648 17.1206 20.2127 17.4852 20.8218 18.0056C21.4115 18.5094 21.8873 19.013 22.2493 19.5165C22.611 20.016 22.8589 20.5043 22.9931 20.9814C23.1292 21.4563 23.1509 21.912 23.0582 22.3485C22.9674 22.7828 22.7624 23.1869 22.4432 23.5605C22.1258 23.9321 21.7691 24.2009 21.3731 24.367C20.9768 24.5291 20.5676 24.5905 20.1453 24.5512C19.7228 24.5078 19.3144 24.3626 18.9202 24.1155L19.5956 23.3249C19.961 23.5138 20.3336 23.5873 20.7131 23.5454C21.0924 23.4994 21.4315 23.3015 21.7304 22.9516C22.1677 22.4397 22.2892 21.8448 22.0949 21.1669C21.9024 20.4868 21.3979 19.798 20.5814 19.1005L20.5372 19.1523C20.6153 19.4283 20.6492 19.7057 20.6388 19.9846C20.6285 20.2635 20.5723 20.5349 20.4701 20.7989C20.3679 21.0628 20.219 21.3092 20.0234 21.5382C19.6987 21.9184 19.3067 22.1869 18.8475 22.3439C18.388 22.4969 17.9118 22.5273 17.419 22.435C16.9258 22.3388 16.4653 22.108 16.0377 21.7426C15.6316 21.3957 15.3375 20.9876 15.1556 20.5183C14.9733 20.045 14.9229 19.5573 15.0043 19.0552C15.0876 18.5509 15.3244 18.0769 15.7147 17.6332ZM16.4275 18.2421C16.195 18.5143 16.0536 18.8176 16.0033 19.152C15.9527 19.4824 15.9875 19.8091 16.1076 20.1322C16.2273 20.4512 16.4255 20.7288 16.702 20.965C16.9784 21.2012 17.2817 21.3557 17.6119 21.4285C17.9417 21.4973 18.264 21.483 18.5788 21.3857C18.8932 21.2845 19.1667 21.0977 19.3992 20.8256C19.5745 20.6204 19.6978 20.3951 19.7692 20.1497C19.8385 19.9024 19.8591 19.653 19.8313 19.4013C19.8032 19.1455 19.7317 18.9033 19.617 18.6746C19.5002 18.444 19.3435 18.2447 19.1469 18.0768C18.8877 17.8553 18.5912 17.7104 18.2573 17.6419C17.9254 17.5713 17.596 17.5851 17.2692 17.6833C16.9443 17.7794 16.6637 17.9656 16.4275 18.2421ZM21.1242 11.3009C21.3589 11.0306 21.6432 10.8027 21.9773 10.6173C22.3113 10.4319 22.692 10.3274 23.1193 10.3039C23.5445 10.2785 24.0172 10.3703 24.5374 10.5793C25.0576 10.7883 25.6222 11.153 26.2314 11.6733C26.821 12.1771 27.2969 12.6807 27.6588 13.1843C28.0205 13.6838 28.2684 14.1721 28.4026 14.6492C28.5387 15.1241 28.5604 15.5798 28.4678 16.0163C28.377 16.4506 28.172 16.8546 27.8527 17.2283C27.5353 17.5998 27.1786 17.8686 26.7826 18.0348C26.3863 18.1969 25.9771 18.2583 25.5549 18.2189C25.1323 18.1755 24.724 18.0303 24.3297 17.7832L25.0051 16.9926C25.3706 17.1815 25.7431 17.255 26.1226 17.2131C26.5019 17.1672 26.841 16.9693 27.1399 16.6193C27.5772 16.1074 27.6987 15.5125 27.5044 14.8346C27.3119 14.1546 26.8075 13.4658 25.991 12.7683L25.9467 12.8201C26.0248 13.0961 26.0587 13.3735 26.0484 13.6524C26.038 13.9313 25.9818 14.2027 25.8796 14.4666C25.7774 14.7305 25.6285 14.977 25.4329 15.206C25.1082 15.5861 24.7162 15.8547 24.257 16.0117C23.7975 16.1647 23.3213 16.195 22.8285 16.1028C22.3353 16.0065 21.8749 15.7757 21.4472 15.4104C21.0411 15.0635 20.7471 14.6553 20.5651 14.186C20.3828 13.7127 20.3324 13.225 20.4139 12.7229C20.4971 12.2187 20.7339 11.7447 21.1242 11.3009ZM21.837 11.9099C21.6045 12.182 21.4631 12.4853 21.4129 12.8197C21.3622 13.1501 21.397 13.4769 21.5171 13.7999C21.6369 14.1189 21.835 14.3966 22.1115 14.6328C22.388 14.8689 22.6913 15.0234 23.0214 15.0962C23.3512 15.165 23.6735 15.1508 23.9883 15.0535C24.3027 14.9522 24.5762 14.7655 24.8087 14.4933C24.984 14.2881 25.1074 14.0628 25.1787 13.8174C25.248 13.5702 25.2687 13.3207 25.2408 13.069C25.2127 12.8133 25.1412 12.5711 25.0266 12.3423C24.9097 12.1117 24.753 11.9124 24.5564 11.7445C24.2972 11.5231 24.0007 11.3781 23.6669 11.3097C23.3349 11.239 23.0055 11.2528 22.6787 11.351C22.3538 11.4471 22.0732 11.6334 21.837 11.9099Z" fill="black"/>
</svg>
