<svg width="401" height="260" viewBox="0 0 401 260" fill="none" xmlns="http://www.w3.org/2000/svg">
<path d="M162.542 170.954C157.454 170.954 152.931 169.965 148.974 167.986C145.087 165.937 142.049 163.075 139.858 159.4C137.738 155.655 136.678 151.379 136.678 146.574V119.12C136.678 114.315 137.738 110.11 139.858 106.506C142.049 102.831 145.087 100.005 148.974 98.026C152.931 95.9767 157.454 94.952 162.542 94.952C167.63 94.952 172.117 95.9413 176.004 97.92C179.891 99.828 182.894 102.549 185.014 106.082C187.205 109.615 188.3 113.714 188.3 118.378V118.484C188.3 118.837 188.194 119.12 187.982 119.332C187.77 119.544 187.523 119.65 187.24 119.65L179.184 120.074C178.477 120.074 178.124 119.756 178.124 119.12V118.802C178.124 114.279 176.711 110.64 173.884 107.884C171.057 105.128 167.277 103.75 162.542 103.75C157.807 103.75 153.991 105.128 151.094 107.884C148.267 110.64 146.854 114.279 146.854 118.802V146.998C146.854 151.521 148.267 155.16 151.094 157.916C153.991 160.672 157.807 162.05 162.542 162.05C167.277 162.05 171.057 160.672 173.884 157.916C176.711 155.16 178.124 151.521 178.124 146.998V146.786C178.124 146.15 178.477 145.832 179.184 145.832L187.24 146.256C187.947 146.256 188.3 146.609 188.3 147.316C188.3 151.98 187.205 156.114 185.014 159.718C182.894 163.251 179.891 166.007 176.004 167.986C172.117 169.965 167.63 170.954 162.542 170.954ZM219.842 115.198C224.152 115.198 227.898 115.975 231.078 117.53C234.328 119.014 236.802 121.134 238.498 123.89C240.264 126.575 241.148 129.649 241.148 133.112V168.94C241.148 169.647 240.794 170 240.088 170H232.032C231.325 170 230.972 169.647 230.972 168.94V165.124C230.972 164.771 230.795 164.7 230.442 164.912C228.604 166.82 226.343 168.304 223.658 169.364C221.043 170.353 218.11 170.848 214.86 170.848C209.63 170.848 205.284 169.541 201.822 166.926C198.43 164.241 196.734 160.213 196.734 154.842C196.734 149.33 198.642 145.019 202.458 141.91C206.344 138.73 211.75 137.14 218.676 137.14H230.548C230.83 137.14 230.972 136.999 230.972 136.716V133.854C230.972 130.745 230.053 128.342 228.216 126.646C226.449 124.879 223.728 123.996 220.054 123.996C217.086 123.996 214.648 124.597 212.74 125.798C210.902 126.929 209.772 128.483 209.348 130.462C209.136 131.169 208.712 131.487 208.076 131.416L199.49 130.25C198.783 130.109 198.465 129.826 198.536 129.402C199.101 125.233 201.327 121.841 205.214 119.226C209.1 116.541 213.976 115.198 219.842 115.198ZM217.086 162.262C220.831 162.262 224.082 161.273 226.838 159.294C229.594 157.315 230.972 154.807 230.972 151.768V145.514C230.972 145.231 230.83 145.09 230.548 145.09H220.584C216.414 145.09 213.093 145.903 210.62 147.528C208.146 149.153 206.91 151.415 206.91 154.312C206.91 156.927 207.828 158.905 209.666 160.248C211.574 161.591 214.047 162.262 217.086 162.262ZM254.885 170C254.179 170 253.825 169.647 253.825 168.94V96.86C253.825 96.1533 254.179 95.8 254.885 95.8H262.941C263.648 95.8 264.001 96.1533 264.001 96.86V168.94C264.001 169.647 263.648 170 262.941 170H254.885ZM324.035 170C323.399 170 322.975 169.717 322.763 169.152L318.947 156.75C318.876 156.538 318.735 156.432 318.523 156.432H288.737C288.525 156.432 288.383 156.538 288.313 156.75L284.497 169.152C284.285 169.717 283.861 170 283.225 170H274.639C273.861 170 273.579 169.611 273.791 168.834L297.005 96.648C297.217 96.0827 297.641 95.8 298.277 95.8H308.877C309.513 95.8 309.937 96.0827 310.149 96.648L333.575 168.834L333.681 169.258C333.681 169.753 333.363 170 332.727 170H324.035ZM290.963 147.846C290.892 147.987 290.892 148.129 290.963 148.27C291.104 148.341 291.245 148.376 291.387 148.376H315.767C315.908 148.376 316.014 148.341 316.085 148.27C316.226 148.129 316.261 147.987 316.191 147.846L303.895 108.52C303.824 108.379 303.718 108.308 303.577 108.308C303.435 108.308 303.329 108.379 303.259 108.52L290.963 147.846ZM345.752 170C345.046 170 344.692 169.647 344.692 168.94V96.86C344.692 96.1533 345.046 95.8 345.752 95.8H353.808C354.515 95.8 354.868 96.1533 354.868 96.86V168.94C354.868 169.647 354.515 170 353.808 170H345.752Z" fill="#FBFBFB"/>
<path d="M258.709 192.711V255H24V17H258.709V89.0508" stroke="white" stroke-width="10"/>
<path d="M258.709 201.672V175.996" stroke="white" stroke-width="10"/>
</svg>
