<svg width="43" height="55" viewBox="0 0 43 55" fill="none" xmlns="http://www.w3.org/2000/svg">
<g clip-path="url(#clip0_34_124)">
<path d="M8.40826 32.542L8.85466 25.5112L19.0051 11.847L25.7875 10.5148L8.40826 32.542Z" stroke="#D0A54C" stroke-width="14"/>
<path d="M13.4662 26.9483C13.9828 27.357 14.2732 27.8629 14.3374 28.4662C14.407 29.0628 14.2332 29.6877 13.8158 30.341C13.7943 30.3682 13.7972 30.3926 13.8243 30.4141L14.5665 30.9846C14.6345 31.0383 14.6416 31.0992 14.5878 31.1672L14.233 31.6158C14.1792 31.6838 14.1183 31.6909 14.0504 31.6371L13.3243 31.0462C13.2971 31.0247 13.2728 31.0276 13.2513 31.0548C12.694 31.6195 12.1118 31.9435 11.5045 32.0268C10.8904 32.1046 10.3217 31.9365 9.7983 31.5225L9.48223 31.2725C9.41426 31.2187 9.40715 31.1579 9.46092 31.0899L9.82384 30.6311C9.87761 30.5631 9.93848 30.556 10.0065 30.6098L10.2817 30.8275C10.676 31.1393 11.1164 31.2391 11.6031 31.1268C12.0883 31.0023 12.546 30.6682 12.9761 30.1244C13.3632 29.635 13.5502 29.1751 13.537 28.7447C13.517 28.309 13.3235 27.946 12.9564 27.6557C12.7185 27.4675 12.4662 27.3673 12.1995 27.3553C11.9381 27.3364 11.6359 27.3902 11.2928 27.5166C10.9497 27.643 10.4995 27.856 9.94215 28.1555C9.35112 28.4836 8.87599 28.7211 8.51676 28.8679C8.15611 29.0025 7.78963 29.0607 7.41731 29.0424C7.04356 29.012 6.67317 28.8516 6.30611 28.5613C5.78272 28.1473 5.49444 27.6596 5.44126 27.0982C5.38129 26.5314 5.54724 25.9444 5.93912 25.3372C5.96063 25.31 5.95778 25.2857 5.9306 25.2641L5.12725 24.6453C5.05927 24.5915 5.05217 24.5306 5.10594 24.4627L5.45273 24.0242C5.50649 23.9563 5.56736 23.9492 5.63534 24.0029L6.43275 24.6503C6.45994 24.6718 6.48429 24.6689 6.50579 24.6417C7.04691 24.0973 7.62181 23.7896 8.23051 23.7186C8.8392 23.6476 9.40865 23.8217 9.93883 24.2411L10.1631 24.4185C10.2311 24.4723 10.2382 24.5332 10.1845 24.6011L9.8054 25.0804C9.75164 25.1483 9.69077 25.1554 9.6228 25.1017L9.43927 24.9565C9.04503 24.6447 8.60656 24.5354 8.12386 24.6288C7.64117 24.7221 7.19551 25.0271 6.78689 25.5437C6.42666 25.9991 6.24832 26.4271 6.25188 26.8277C6.25545 27.2284 6.44416 27.5765 6.81801 27.8722C7.06271 28.0658 7.31233 28.1693 7.56687 28.1828C7.81998 28.1841 8.09374 28.1244 8.38815 28.0037C8.68113 27.8708 9.10559 27.6485 9.66152 27.3368C10.2364 27.0291 10.7252 26.8024 11.1277 26.6567C11.5356 26.5042 11.9359 26.4451 12.3287 26.4795C12.7199 26.5017 13.0991 26.658 13.4662 26.9483ZM10.0461 20.3546C10.0579 20.2977 10.0827 20.2454 10.1203 20.1979L10.5558 19.6473C10.6096 19.5793 10.6705 19.5722 10.7384 19.626L17.6717 25.1101C17.7396 25.1639 17.7467 25.2248 17.693 25.2927L17.2817 25.8127C17.2279 25.8807 17.167 25.8878 17.0991 25.834L10.8897 20.9225C10.8761 20.9117 10.8606 20.9105 10.843 20.9187C10.8308 20.9201 10.8228 20.9303 10.8188 20.9493L10.4024 22.3768L10.3803 22.4257C10.348 22.4665 10.2994 22.4722 10.2342 22.4427L9.80645 22.1872L9.78606 22.1711C9.75207 22.1442 9.7369 22.0936 9.74055 22.0191L10.0461 20.3546ZM16.2183 15.0661C16.5547 15.1996 16.9064 15.4115 17.2735 15.7018L20.4546 18.2181C21.012 18.659 21.312 19.1947 21.3548 19.8252C21.3907 20.4503 21.1748 21.0585 20.707 21.6499C20.2554 22.2209 19.7274 22.5601 19.1229 22.6677C18.5171 22.7631 17.9558 22.6065 17.4393 22.1978L17.2965 22.0849C17.2285 22.0312 17.2214 21.9703 17.2752 21.9023L17.6865 21.3823C17.7403 21.3144 17.8011 21.3072 17.8691 21.361L17.9507 21.4255C18.2974 21.6997 18.6682 21.8107 19.0631 21.7585C19.458 21.7062 19.7953 21.5033 20.0749 21.1499C20.3652 20.7828 20.4923 20.3916 20.4562 19.9763C20.4133 19.5556 20.2049 19.1974 19.831 18.9017L18.3424 17.7242C18.3288 17.7134 18.3167 17.7149 18.3059 17.7284C18.2883 17.7367 18.2837 17.7495 18.2919 17.7671C18.4564 18.3834 18.302 18.9906 17.8289 19.5888C17.4902 20.017 17.11 20.302 16.6885 20.4437C16.2724 20.5787 15.8318 20.5838 15.3669 20.4592C14.9685 20.3761 14.5246 20.141 14.0352 19.7539C13.6206 19.4259 13.321 19.1061 13.1366 18.7944C12.8552 18.3399 12.7295 17.8702 12.7593 17.3855C12.7945 16.8939 12.9949 16.4171 13.3605 15.9549C13.7476 15.4655 14.1918 15.1483 14.6932 15.0034C15.1931 14.8464 15.7015 14.8672 16.2183 15.0661ZM17.2693 18.997C17.5059 18.6979 17.6335 18.39 17.652 18.0731C17.6692 17.7441 17.5808 17.4367 17.3871 17.1508C17.2491 16.9201 17.0034 16.665 16.6499 16.3854C16.3576 16.1542 16.0853 15.9886 15.833 15.8884C15.5102 15.7657 15.1873 15.7478 14.8643 15.8349C14.5413 15.922 14.2588 16.1184 14.0168 16.4243C13.7856 16.7166 13.6615 17.0272 13.6443 17.3562C13.6204 17.6798 13.7128 17.9961 13.9216 18.3049C14.0528 18.5302 14.2815 18.7719 14.6078 19.03C14.9545 19.3042 15.2613 19.475 15.5283 19.5426C15.8375 19.6546 16.1476 19.6678 16.4584 19.5821C16.7625 19.4911 17.0328 19.2961 17.2693 18.997ZM20.424 9.74905C20.7604 9.88255 21.1122 10.0945 21.4792 10.3848L24.6603 12.9011C25.2177 13.3419 25.5178 13.8776 25.5605 14.5081C25.5964 15.1333 25.3805 15.7415 24.9128 16.3329C24.4611 16.9039 23.9331 17.2431 23.3287 17.3507C22.7228 17.4461 22.1616 17.2894 21.645 16.8808L21.5022 16.7679C21.4343 16.7141 21.4272 16.6533 21.4809 16.5853L21.8922 16.0653C21.946 15.9973 22.0069 15.9902 22.0748 16.044L22.1564 16.1085C22.5031 16.3827 22.8739 16.4937 23.2688 16.4414C23.6638 16.3892 24.001 16.1863 24.2806 15.8329C24.5709 15.4658 24.6981 15.0746 24.6619 14.6593C24.619 14.2386 24.4106 13.8804 24.0368 13.5846L22.5481 12.4072C22.5346 12.3964 22.5224 12.3978 22.5116 12.4114C22.4941 12.4196 22.4894 12.4325 22.4976 12.4501C22.6621 13.0664 22.5078 13.6736 22.0346 14.2718C21.6959 14.7 21.3158 14.985 20.8943 15.1267C20.4781 15.2617 20.0376 15.2668 19.5726 15.1421C19.1742 15.0591 18.7303 14.824 18.2409 14.4368C17.8263 14.1089 17.5267 13.7891 17.3423 13.4774C17.061 13.0228 16.9352 12.5532 16.965 12.0684C17.0002 11.5769 17.2006 11.1001 17.5662 10.6378C17.9533 10.1484 18.3976 9.83129 18.8989 9.6864C19.3989 9.52934 19.9072 9.55022 20.424 9.74905ZM21.4751 13.68C21.7116 13.3809 21.8392 13.0729 21.8577 12.7561C21.8749 12.4271 21.7866 12.1197 21.5928 11.8338C21.4548 11.6031 21.2091 11.348 20.8556 11.0684C20.5633 10.8372 20.291 10.6715 20.0387 10.5714C19.7159 10.4487 19.393 10.4308 19.07 10.5179C18.747 10.6049 18.4645 10.8014 18.2226 11.1073C17.9914 11.3996 17.8672 11.7102 17.8501 12.0392C17.8261 12.3628 17.9186 12.679 18.1273 12.9878C18.2585 13.2132 18.4873 13.4549 18.8135 13.7129C19.1602 13.9871 19.467 14.158 19.734 14.2256C20.0433 14.3376 20.3533 14.3508 20.6641 14.2651C20.9682 14.1741 21.2385 13.9791 21.4751 13.68Z" fill="black"/>
</g>
<defs>
<clipPath id="clip0_34_124">
<rect width="43" height="55" fill="white"/>
</clipPath>
</defs>
</svg>
