<svg width="223" height="55" viewBox="0 0 223 55" fill="none" xmlns="http://www.w3.org/2000/svg">
<rect width="55" height="55" rx="12" fill="#D9D9D9"/>
<path d="M51.975 0H3.025C2.22272 0 1.4533 0.318705 0.886002 0.886002C0.318705 1.4533 0 2.22272 0 3.025V51.975C0 52.7773 0.318705 53.5467 0.886002 54.114C1.4533 54.6813 2.22272 55 3.025 55H29.37V33.6875H22.22V25.4375H29.37V19.25C29.2219 17.7973 29.3934 16.3298 29.8725 14.9505C30.3515 13.5711 31.1266 12.3133 32.1433 11.2651C33.16 10.217 34.3936 9.40401 35.7578 8.88315C37.1219 8.3623 38.5835 8.14619 40.04 8.25C42.1804 8.23683 44.3198 8.34701 46.4475 8.58V16.005H42.075C38.61 16.005 37.95 17.655 37.95 20.0475V25.355H46.2L45.1275 33.605H37.95V55H51.975C52.3722 55 52.7656 54.9218 53.1326 54.7697C53.4996 54.6177 53.8331 54.3949 54.114 54.114C54.3949 53.8331 54.6177 53.4996 54.7697 53.1326C54.9218 52.7656 55 52.3722 55 51.975V3.025C55 2.62775 54.9218 2.23439 54.7697 1.86738C54.6177 1.50037 54.3949 1.1669 54.114 0.886002C53.8331 0.605105 53.4996 0.382285 53.1326 0.230265C52.7656 0.0782442 52.3722 0 51.975 0Z" fill="black"/>
<rect x="87" y="2" width="50" height="50" rx="21" fill="black"/>
<path d="M112 19.5C110.011 19.5 108.103 20.2902 106.697 21.6967C105.29 23.1032 104.5 25.0109 104.5 27C104.5 28.9891 105.29 30.8968 106.697 32.3033C108.103 33.7098 110.011 34.5 112 34.5C113.989 34.5 115.897 33.7098 117.303 32.3033C118.71 30.8968 119.5 28.9891 119.5 27C119.5 25.0109 118.71 23.1032 117.303 21.6967C115.897 20.2902 113.989 19.5 112 19.5ZM112 14.5C115.315 14.5 118.495 15.817 120.839 18.1612C123.183 20.5054 124.5 23.6848 124.5 27C124.5 30.3152 123.183 33.4946 120.839 35.8388C118.495 38.183 115.315 39.5 112 39.5C108.685 39.5 105.505 38.183 103.161 35.8388C100.817 33.4946 99.5 30.3152 99.5 27C99.5 23.6848 100.817 20.5054 103.161 18.1612C105.505 15.817 108.685 14.5 112 14.5ZM128.25 13.875C128.25 14.7038 127.921 15.4987 127.335 16.0847C126.749 16.6708 125.954 17 125.125 17C124.296 17 123.501 16.6708 122.915 16.0847C122.329 15.4987 122 14.7038 122 13.875C122 13.0462 122.329 12.2513 122.915 11.6653C123.501 11.0792 124.296 10.75 125.125 10.75C125.954 10.75 126.749 11.0792 127.335 11.6653C127.921 12.2513 128.25 13.0462 128.25 13.875ZM112 7C105.815 7 104.805 7.0175 101.928 7.145C99.9675 7.2375 98.6525 7.5 97.4325 7.975C96.4115 8.34984 95.4885 8.95065 94.7325 9.7325C93.95 10.4885 93.3484 11.4115 92.9725 12.4325C92.4975 13.6575 92.235 14.97 92.145 16.9275C92.015 19.6875 91.9975 20.6525 91.9975 27C91.9975 33.1875 92.015 34.195 92.1425 37.0725C92.235 39.03 92.4975 40.3475 92.97 41.565C93.395 42.6525 93.895 43.435 94.725 44.265C95.5675 45.105 96.35 45.6075 97.425 46.0225C98.66 46.5 99.975 46.765 101.925 46.855C104.685 46.985 105.65 47 111.998 47C118.185 47 119.193 46.9825 122.07 46.855C124.025 46.7625 125.34 46.5 126.562 46.0275C127.583 45.6508 128.505 45.0503 129.263 44.27C130.105 43.43 130.608 42.6475 131.023 41.57C131.498 40.34 131.763 39.025 131.853 37.07C131.982 34.3125 131.998 33.345 131.998 27C131.998 20.815 131.98 19.805 131.853 16.9275C131.76 14.9725 131.495 13.6525 131.023 12.4325C130.646 11.4125 130.045 10.49 129.265 9.7325C128.509 8.94962 127.586 8.34792 126.565 7.9725C125.34 7.4975 124.025 7.235 122.07 7.145C119.312 7.015 118.35 7 112 7ZM112 2C118.792 2 119.64 2.025 122.308 2.15C124.968 2.275 126.783 2.6925 128.375 3.3125C130.025 3.9475 131.415 4.8075 132.805 6.195C134.076 7.44474 135.06 8.95647 135.688 10.625C136.305 12.2175 136.725 14.0325 136.85 16.695C136.968 19.36 137 20.2075 137 27C137 33.7925 136.975 34.64 136.85 37.305C136.725 39.9675 136.305 41.78 135.688 43.375C135.062 45.0444 134.078 46.5565 132.805 47.805C131.555 49.0758 130.043 50.0594 128.375 50.6875C126.783 51.305 124.968 51.725 122.308 51.85C119.64 51.9675 118.792 52 112 52C105.208 52 104.36 51.975 101.692 51.85C99.0325 51.725 97.22 51.305 95.625 50.6875C93.9558 50.0612 92.4438 49.0774 91.195 47.805C89.9236 46.5554 88.9399 45.0436 88.3125 43.375C87.6925 41.7825 87.275 39.9675 87.15 37.305C87.03 34.64 87 33.7925 87 27C87 20.2075 87.025 19.36 87.15 16.695C87.275 14.03 87.6925 12.22 88.3125 10.625C88.9381 8.95545 89.922 7.4433 91.195 6.195C92.4442 4.92308 93.9561 3.93932 95.625 3.3125C97.2175 2.6925 99.03 2.275 101.692 2.15C104.36 2.0325 105.208 2 112 2Z" fill="white"/>
<rect x="173" width="50" height="50" fill="black"/>
<path d="M170 52C168.625 52 167.448 51.3875 166.468 50.1625C165.488 48.9375 164.998 47.4667 165 45.75V8.25C165 6.53125 165.49 5.05938 166.47 3.83438C167.45 2.60938 168.627 1.99792 170 2.00001H210C211.375 2.00001 212.552 2.6125 213.532 3.8375C214.512 5.0625 215.002 6.53334 215 8.25V45.75C215 47.4687 214.51 48.9406 213.53 50.1656C212.55 51.3906 211.373 52.0021 210 52H170ZM190 30.125L170 14.5V45.75H210V14.5L190 30.125ZM190 23.875L210 8.25H170L190 23.875ZM170 14.5V8.25V45.75V14.5Z" fill="white"/>
</svg>
