<svg width="161" height="35" viewBox="0 0 161 35" fill="none" xmlns="http://www.w3.org/2000/svg">
<rect y="3" width="161" height="31" fill="#FAFAFA"/>
<path d="M29.8253 17H29.179L31.0483 11.9091H31.6847L33.554 17H32.9077L31.3864 12.7145H31.3466L29.8253 17ZM30.0639 15.0114H32.669V15.5582H30.0639V15.0114ZM34.2674 17V13.1818H34.8342V13.7585H34.8739C34.9435 13.5696 35.0695 13.4163 35.2518 13.2987C35.4341 13.181 35.6396 13.1222 35.8683 13.1222C35.9113 13.1222 35.9652 13.123 36.0298 13.1246C36.0945 13.1263 36.1433 13.1288 36.1765 13.1321V13.7287C36.1566 13.7237 36.111 13.7163 36.0398 13.7063C35.9702 13.6947 35.8964 13.6889 35.8185 13.6889C35.6329 13.6889 35.4672 13.7279 35.3214 13.8058C35.1772 13.882 35.0629 13.988 34.9783 14.1239C34.8955 14.2582 34.854 14.4115 34.854 14.5838V17H34.2674ZM38.7717 13.1818V13.679H36.793V13.1818H38.7717ZM37.3697 12.267H37.9563V15.9062C37.9563 16.072 37.9804 16.1963 38.0284 16.2791C38.0781 16.3603 38.1411 16.415 38.2173 16.4432C38.2952 16.4697 38.3772 16.483 38.4634 16.483C38.5281 16.483 38.5811 16.4796 38.6225 16.473C38.6639 16.4647 38.6971 16.4581 38.7219 16.4531L38.8413 16.9801C38.8015 16.995 38.746 17.0099 38.6747 17.0249C38.6035 17.0414 38.5131 17.0497 38.4038 17.0497C38.238 17.0497 38.0756 17.0141 37.9165 16.9428C37.7591 16.8716 37.6282 16.763 37.5238 16.6172C37.421 16.4714 37.3697 16.2874 37.3697 16.0653V12.267ZM39.6541 17V13.1818H40.2408V17H39.6541ZM39.9524 12.5455C39.8381 12.5455 39.7395 12.5065 39.6566 12.4286C39.5754 12.3507 39.5348 12.2571 39.5348 12.1477C39.5348 12.0384 39.5754 11.9447 39.6566 11.8668C39.7395 11.7889 39.8381 11.75 39.9524 11.75C40.0668 11.75 40.1645 11.7889 40.2457 11.8668C40.3286 11.9447 40.37 12.0384 40.37 12.1477C40.37 12.2571 40.3286 12.3507 40.2457 12.4286C40.1645 12.5065 40.0668 12.5455 39.9524 12.5455ZM43.0155 13.1818V13.679H40.9573V13.1818H43.0155ZM41.5738 17V12.6548C41.5738 12.4361 41.6251 12.2538 41.7279 12.108C41.8306 11.9621 41.964 11.8527 42.1281 11.7798C42.2922 11.7069 42.4653 11.6705 42.6476 11.6705C42.7918 11.6705 42.9095 11.6821 43.0006 11.7053C43.0918 11.7285 43.1597 11.75 43.2045 11.7699L43.0354 12.277C43.0056 12.267 42.9642 12.2546 42.9111 12.2397C42.8598 12.2248 42.7918 12.2173 42.7073 12.2173C42.5134 12.2173 42.3734 12.2662 42.2872 12.364C42.2027 12.4618 42.1604 12.6051 42.1604 12.794V17H41.5738ZM43.8377 17V13.1818H44.4244V17H43.8377ZM44.136 12.5455C44.0217 12.5455 43.9231 12.5065 43.8402 12.4286C43.759 12.3507 43.7184 12.2571 43.7184 12.1477C43.7184 12.0384 43.759 11.9447 43.8402 11.8668C43.9231 11.7889 44.0217 11.75 44.136 11.75C44.2504 11.75 44.3481 11.7889 44.4293 11.8668C44.5122 11.9447 44.5536 12.0384 44.5536 12.1477C44.5536 12.2571 44.5122 12.3507 44.4293 12.4286C44.3481 12.5065 44.2504 12.5455 44.136 12.5455ZM47.05 17.0795C46.692 17.0795 46.3838 16.995 46.1253 16.826C45.8667 16.657 45.6679 16.4241 45.5287 16.1275C45.3895 15.8308 45.3199 15.492 45.3199 15.1108C45.3199 14.723 45.3911 14.3808 45.5336 14.0842C45.6778 13.7859 45.8783 13.553 46.1352 13.3857C46.3937 13.2166 46.6953 13.1321 47.04 13.1321C47.3085 13.1321 47.5505 13.1818 47.7659 13.2812C47.9813 13.3807 48.1578 13.5199 48.2954 13.6989C48.4329 13.8778 48.5183 14.0866 48.5514 14.3253H47.9648C47.92 14.1513 47.8206 13.9972 47.6665 13.8629C47.514 13.727 47.3085 13.6591 47.05 13.6591C46.8213 13.6591 46.6208 13.7187 46.4484 13.8381C46.2777 13.9557 46.1443 14.1223 46.0482 14.3377C45.9537 14.5515 45.9065 14.8026 45.9065 15.0909C45.9065 15.3859 45.9529 15.6428 46.0457 15.8615C46.1402 16.0803 46.2728 16.2501 46.4434 16.3711C46.6158 16.4921 46.818 16.5526 47.05 16.5526C47.2024 16.5526 47.3408 16.526 47.4651 16.473C47.5894 16.42 47.6946 16.3438 47.7808 16.2443C47.867 16.1449 47.9283 16.0256 47.9648 15.8864H48.5514C48.5183 16.1117 48.4362 16.3147 48.3053 16.4954C48.176 16.6744 48.0045 16.8169 47.7907 16.9229C47.5786 17.0273 47.3317 17.0795 47.05 17.0795ZM49.409 17V13.1818H49.9956V17H49.409ZM49.7073 12.5455C49.593 12.5455 49.4943 12.5065 49.4115 12.4286C49.3303 12.3507 49.2897 12.2571 49.2897 12.1477C49.2897 12.0384 49.3303 11.9447 49.4115 11.8668C49.4943 11.7889 49.593 11.75 49.7073 11.75C49.8216 11.75 49.9194 11.7889 50.0006 11.8668C50.0835 11.9447 50.1249 12.0384 50.1249 12.1477C50.1249 12.2571 50.0835 12.3507 50.0006 12.4286C49.9194 12.5065 49.8216 12.5455 49.7073 12.5455ZM52.1937 17.0895C51.9518 17.0895 51.7322 17.0439 51.535 16.9528C51.3378 16.86 51.1812 16.7266 51.0652 16.5526C50.9492 16.3769 50.8912 16.1648 50.8912 15.9162C50.8912 15.6974 50.9342 15.5201 51.0204 15.3842C51.1066 15.2467 51.2218 15.139 51.3659 15.0611C51.5101 14.9832 51.6692 14.9252 51.8432 14.8871C52.0189 14.8473 52.1954 14.8158 52.3727 14.7926C52.6047 14.7628 52.7928 14.7404 52.937 14.7255C53.0828 14.7089 53.1889 14.6816 53.2551 14.6435C53.3231 14.6054 53.3571 14.5391 53.3571 14.4446V14.4247C53.3571 14.1795 53.29 13.9889 53.1557 13.853C53.0231 13.7171 52.8218 13.6491 52.5517 13.6491C52.2716 13.6491 52.052 13.7105 51.8929 13.8331C51.7338 13.9557 51.622 14.0866 51.5574 14.2259L51.0005 14.027C51.1 13.795 51.2325 13.6143 51.3983 13.4851C51.5656 13.3542 51.7479 13.263 51.9451 13.2116C52.144 13.1586 52.3395 13.1321 52.5318 13.1321C52.6544 13.1321 52.7953 13.147 52.9544 13.1768C53.1151 13.205 53.2701 13.2638 53.4192 13.3533C53.57 13.4428 53.6951 13.5779 53.7946 13.7585C53.894 13.9392 53.9437 14.1811 53.9437 14.4844V17H53.3571V16.483H53.3272C53.2875 16.5658 53.2212 16.6545 53.1284 16.7489C53.0356 16.8434 52.9121 16.9238 52.758 16.9901C52.6039 17.0563 52.4158 17.0895 52.1937 17.0895ZM52.2832 16.5625C52.5152 16.5625 52.7108 16.5169 52.8699 16.4258C53.0306 16.3346 53.1516 16.217 53.2328 16.0728C53.3156 15.9286 53.3571 15.777 53.3571 15.6179V15.081C53.3322 15.1108 53.2775 15.1381 53.193 15.163C53.1101 15.1862 53.014 15.2069 52.9047 15.2251C52.7969 15.2417 52.6917 15.2566 52.589 15.2699C52.4879 15.2815 52.4058 15.2914 52.3429 15.2997C52.1904 15.3196 52.0479 15.3519 51.9153 15.3967C51.7844 15.4397 51.6783 15.5052 51.5971 15.593C51.5176 15.6792 51.4778 15.7969 51.4778 15.946C51.4778 16.1499 51.5532 16.304 51.704 16.4084C51.8565 16.5111 52.0495 16.5625 52.2832 16.5625ZM55.6011 11.9091V17H55.0145V11.9091H55.6011ZM59.3404 11.9091V17H58.7239V11.9091H59.3404ZM61.0835 14.7031V17H60.4969V13.1818H61.0637V13.7784H61.1134C61.2029 13.5845 61.3387 13.4287 61.521 13.3111C61.7033 13.1918 61.9387 13.1321 62.227 13.1321C62.4855 13.1321 62.7117 13.1851 62.9056 13.2912C63.0995 13.3956 63.2503 13.5547 63.358 13.7685C63.4658 13.9806 63.5196 14.2491 63.5196 14.5739V17H62.933V14.6136C62.933 14.3137 62.8551 14.08 62.6993 13.9126C62.5435 13.7436 62.3298 13.6591 62.058 13.6591C61.8707 13.6591 61.7033 13.6997 61.5558 13.7809C61.41 13.8621 61.2948 13.9806 61.2103 14.1364C61.1258 14.2921 61.0835 14.4811 61.0835 14.7031ZM66.2521 13.1818V13.679H64.2734V13.1818H66.2521ZM64.8501 12.267H65.4368V15.9062C65.4368 16.072 65.4608 16.1963 65.5089 16.2791C65.5586 16.3603 65.6216 16.415 65.6978 16.4432C65.7757 16.4697 65.8577 16.483 65.9439 16.483C66.0085 16.483 66.0616 16.4796 66.103 16.473C66.1444 16.4647 66.1776 16.4581 66.2024 16.4531L66.3217 16.9801C66.282 16.995 66.2264 17.0099 66.1552 17.0249C66.0839 17.0414 65.9936 17.0497 65.8842 17.0497C65.7185 17.0497 65.5561 17.0141 65.397 16.9428C65.2396 16.8716 65.1087 16.763 65.0043 16.6172C64.9015 16.4714 64.8501 16.2874 64.8501 16.0653V12.267ZM68.6944 17.0795C68.3265 17.0795 68.0092 16.9983 67.7424 16.8359C67.4772 16.6719 67.2725 16.4432 67.1284 16.1499C66.9859 15.8549 66.9146 15.5118 66.9146 15.1207C66.9146 14.7296 66.9859 14.3849 67.1284 14.0866C67.2725 13.7867 67.4731 13.553 67.7299 13.3857C67.9885 13.2166 68.2901 13.1321 68.6348 13.1321C68.8336 13.1321 69.03 13.1652 69.2239 13.2315C69.4178 13.2978 69.5943 13.4055 69.7534 13.5547C69.9125 13.7022 70.0392 13.8977 70.1337 14.1413C70.2282 14.3849 70.2754 14.6849 70.2754 15.0412V15.2898H67.3322V14.7827H69.6788C69.6788 14.5672 69.6357 14.375 69.5495 14.206C69.465 14.0369 69.344 13.9035 69.1866 13.8058C69.0308 13.708 68.8469 13.6591 68.6348 13.6591C68.4011 13.6591 68.1989 13.7171 68.0282 13.8331C67.8592 13.9474 67.7291 14.0966 67.638 14.2805C67.5468 14.4645 67.5012 14.6617 67.5012 14.8722V15.2102C67.5012 15.4986 67.551 15.743 67.6504 15.9435C67.7515 16.1424 67.8915 16.294 68.0705 16.3984C68.2495 16.5012 68.4574 16.5526 68.6944 16.5526C68.8485 16.5526 68.9877 16.531 69.112 16.4879C69.238 16.4432 69.3465 16.3769 69.4377 16.2891C69.5288 16.1996 69.5993 16.0885 69.649 15.956L70.2157 16.1151C70.1561 16.3073 70.0558 16.4763 69.915 16.6222C69.7741 16.7663 69.6001 16.879 69.3929 16.9602C69.1858 17.0398 68.9529 17.0795 68.6944 17.0795ZM71.7544 11.9091V17H71.1678V11.9091H71.7544ZM73.4156 11.9091V17H72.8289V11.9091H73.4156ZM74.4901 17V13.1818H75.0767V17H74.4901ZM74.7884 12.5455C74.674 12.5455 74.5754 12.5065 74.4925 12.4286C74.4113 12.3507 74.3707 12.2571 74.3707 12.1477C74.3707 12.0384 74.4113 11.9447 74.4925 11.8668C74.5754 11.7889 74.674 11.75 74.7884 11.75C74.9027 11.75 75.0005 11.7889 75.0817 11.8668C75.1645 11.9447 75.206 12.0384 75.206 12.1477C75.206 12.2571 75.1645 12.3507 75.0817 12.4286C75.0005 12.5065 74.9027 12.5455 74.7884 12.5455ZM77.6924 18.5114C77.409 18.5114 77.1654 18.4749 76.9616 18.402C76.7577 18.3307 76.5879 18.2363 76.452 18.1186C76.3177 18.0026 76.2108 17.8783 76.1313 17.7457L76.5986 17.4176C76.6517 17.4872 76.7188 17.5668 76.8 17.6562C76.8812 17.7474 76.9922 17.8261 77.1331 17.8924C77.2756 17.9603 77.462 17.9943 77.6924 17.9943C78.0006 17.9943 78.255 17.9197 78.4555 17.7706C78.656 17.6214 78.7563 17.3878 78.7563 17.0696V16.294H78.7066C78.6635 16.3636 78.6022 16.4498 78.5226 16.5526C78.4448 16.6536 78.3321 16.744 78.1846 16.8235C78.0387 16.9014 77.8415 16.9403 77.593 16.9403C77.2847 16.9403 77.008 16.8674 76.7627 16.7216C76.5191 16.5758 76.326 16.3636 76.1835 16.0852C76.0426 15.8068 75.9722 15.4687 75.9722 15.071C75.9722 14.6799 76.041 14.3394 76.1785 14.0494C76.3161 13.7577 76.5075 13.5323 76.7528 13.3732C76.998 13.2125 77.2814 13.1321 77.6029 13.1321C77.8515 13.1321 78.0487 13.1735 78.1945 13.2564C78.342 13.3376 78.4547 13.4304 78.5326 13.5348C78.6121 13.6375 78.6734 13.7221 78.7165 13.7884H78.7762V13.1818H79.343V17.1094C79.343 17.4375 79.2684 17.7043 79.1192 17.9098C78.9717 18.117 78.7729 18.2686 78.5226 18.3647C78.2741 18.4625 77.9973 18.5114 77.6924 18.5114ZM77.6725 16.4134C77.9078 16.4134 78.1067 16.3595 78.2691 16.2518C78.4315 16.1441 78.555 15.9891 78.6395 15.7869C78.724 15.5848 78.7662 15.3428 78.7662 15.0611C78.7662 14.786 78.7248 14.5432 78.642 14.3327C78.5591 14.1223 78.4365 13.9574 78.2741 13.8381C78.1117 13.7187 77.9111 13.6591 77.6725 13.6591C77.4239 13.6591 77.2168 13.7221 77.051 13.848C76.887 13.974 76.7635 14.143 76.6807 14.3551C76.5995 14.5672 76.5589 14.8026 76.5589 15.0611C76.5589 15.3262 76.6003 15.5607 76.6831 15.7646C76.7677 15.9667 76.892 16.1258 77.056 16.2418C77.2217 16.3562 77.4272 16.4134 77.6725 16.4134ZM82.0177 17.0795C81.6498 17.0795 81.3324 16.9983 81.0656 16.8359C80.8005 16.6719 80.5958 16.4432 80.4516 16.1499C80.3091 15.8549 80.2378 15.5118 80.2378 15.1207C80.2378 14.7296 80.3091 14.3849 80.4516 14.0866C80.5958 13.7867 80.7963 13.553 81.0532 13.3857C81.3117 13.2166 81.6133 13.1321 81.958 13.1321C82.1569 13.1321 82.3532 13.1652 82.5471 13.2315C82.741 13.2978 82.9175 13.4055 83.0766 13.5547C83.2357 13.7022 83.3625 13.8977 83.4569 14.1413C83.5514 14.3849 83.5986 14.6849 83.5986 15.0412V15.2898H80.6555V14.7827H83.002C83.002 14.5672 82.959 14.375 82.8728 14.206C82.7883 14.0369 82.6673 13.9035 82.5099 13.8058C82.3541 13.708 82.1701 13.6591 81.958 13.6591C81.7243 13.6591 81.5222 13.7171 81.3515 13.8331C81.1824 13.9474 81.0523 14.0966 80.9612 14.2805C80.8701 14.4645 80.8245 14.6617 80.8245 14.8722V15.2102C80.8245 15.4986 80.8742 15.743 80.9736 15.9435C81.0747 16.1424 81.2148 16.294 81.3937 16.3984C81.5727 16.5012 81.7807 16.5526 82.0177 16.5526C82.1718 16.5526 82.311 16.531 82.4353 16.4879C82.5612 16.4432 82.6698 16.3769 82.7609 16.2891C82.8521 16.1996 82.9225 16.0885 82.9722 15.956L83.539 16.1151C83.4793 16.3073 83.3791 16.4763 83.2382 16.6222C83.0973 16.7663 82.9233 16.879 82.7162 16.9602C82.509 17.0398 82.2762 17.0795 82.0177 17.0795ZM85.0777 14.7031V17H84.491V13.1818H85.0578V13.7784H85.1075C85.197 13.5845 85.3329 13.4287 85.5152 13.3111C85.6975 13.1918 85.9328 13.1321 86.2211 13.1321C86.4797 13.1321 86.7059 13.1851 86.8998 13.2912C87.0937 13.3956 87.2445 13.5547 87.3522 13.7685C87.4599 13.9806 87.5138 14.2491 87.5138 14.5739V17H86.9271V14.6136C86.9271 14.3137 86.8492 14.08 86.6934 13.9126C86.5377 13.7436 86.3239 13.6591 86.0521 13.6591C85.8648 13.6591 85.6975 13.6997 85.55 13.7809C85.4041 13.8621 85.289 13.9806 85.2045 14.1364C85.1199 14.2921 85.0777 14.4811 85.0777 14.7031ZM90.1369 17.0795C89.7789 17.0795 89.4707 16.995 89.2122 16.826C88.9537 16.657 88.7548 16.4241 88.6156 16.1275C88.4764 15.8308 88.4068 15.492 88.4068 15.1108C88.4068 14.723 88.478 14.3808 88.6206 14.0842C88.7647 13.7859 88.9653 13.553 89.2221 13.3857C89.4806 13.2166 89.7823 13.1321 90.127 13.1321C90.3954 13.1321 90.6374 13.1818 90.8528 13.2812C91.0682 13.3807 91.2447 13.5199 91.3823 13.6989C91.5198 13.8778 91.6052 14.0866 91.6383 14.3253H91.0517C91.0069 14.1513 90.9075 13.9972 90.7534 13.8629C90.6009 13.727 90.3954 13.6591 90.1369 13.6591C89.9082 13.6591 89.7077 13.7187 89.5353 13.8381C89.3646 13.9557 89.2312 14.1223 89.1351 14.3377C89.0407 14.5515 88.9934 14.8026 88.9934 15.0909C88.9934 15.3859 89.0398 15.6428 89.1326 15.8615C89.2271 16.0803 89.3597 16.2501 89.5304 16.3711C89.7027 16.4921 89.9049 16.5526 90.1369 16.5526C90.2894 16.5526 90.4277 16.526 90.552 16.473C90.6763 16.42 90.7815 16.3438 90.8677 16.2443C90.9539 16.1449 91.0152 16.0256 91.0517 15.8864H91.6383C91.6052 16.1117 91.5231 16.3147 91.3922 16.4954C91.263 16.6744 91.0914 16.8169 90.8777 16.9229C90.6655 17.0273 90.4186 17.0795 90.1369 17.0795ZM94.0968 17.0795C93.7289 17.0795 93.4115 16.9983 93.1447 16.8359C92.8796 16.6719 92.6749 16.4432 92.5307 16.1499C92.3882 15.8549 92.3169 15.5118 92.3169 15.1207C92.3169 14.7296 92.3882 14.3849 92.5307 14.0866C92.6749 13.7867 92.8754 13.553 93.1323 13.3857C93.3908 13.2166 93.6924 13.1321 94.0371 13.1321C94.236 13.1321 94.4324 13.1652 94.6262 13.2315C94.8201 13.2978 94.9966 13.4055 95.1557 13.5547C95.3148 13.7022 95.4416 13.8977 95.536 14.1413C95.6305 14.3849 95.6777 14.6849 95.6777 15.0412V15.2898H92.7346V14.7827H95.0811C95.0811 14.5672 95.0381 14.375 94.9519 14.206C94.8674 14.0369 94.7464 13.9035 94.589 13.8058C94.4332 13.708 94.2492 13.6591 94.0371 13.6591C93.8034 13.6591 93.6013 13.7171 93.4306 13.8331C93.2615 13.9474 93.1315 14.0966 93.0403 14.2805C92.9492 14.4645 92.9036 14.6617 92.9036 14.8722V15.2102C92.9036 15.4986 92.9533 15.743 93.0527 15.9435C93.1538 16.1424 93.2939 16.294 93.4728 16.3984C93.6518 16.5012 93.8598 16.5526 94.0968 16.5526C94.2509 16.5526 94.3901 16.531 94.5144 16.4879C94.6403 16.4432 94.7489 16.3769 94.84 16.2891C94.9312 16.1996 95.0016 16.0885 95.0513 15.956L95.6181 16.1151C95.5584 16.3073 95.4582 16.4763 95.3173 16.6222C95.1764 16.7663 95.0024 16.879 94.7953 16.9602C94.5881 17.0398 94.3553 17.0795 94.0968 17.0795ZM102.715 13.5H102.099C102.062 13.3227 101.998 13.1669 101.907 13.0327C101.818 12.8984 101.708 12.7857 101.579 12.6946C101.451 12.6018 101.31 12.5322 101.154 12.4858C100.998 12.4394 100.836 12.4162 100.667 12.4162C100.358 12.4162 100.079 12.4941 99.829 12.6499C99.5804 12.8056 99.3824 13.0352 99.2349 13.3384C99.0891 13.6417 99.0162 14.0137 99.0162 14.4545C99.0162 14.8954 99.0891 15.2674 99.2349 15.5707C99.3824 15.8739 99.5804 16.1035 99.829 16.2592C100.079 16.415 100.358 16.4929 100.667 16.4929C100.836 16.4929 100.998 16.4697 101.154 16.4233C101.31 16.3769 101.451 16.3081 101.579 16.217C101.708 16.1242 101.818 16.0107 101.907 15.8764C101.998 15.7405 102.062 15.5848 102.099 15.4091H102.715C102.669 15.6693 102.584 15.9021 102.461 16.1076C102.339 16.3131 102.186 16.4879 102.004 16.6321C101.822 16.7746 101.617 16.8832 101.39 16.9577C101.165 17.0323 100.924 17.0696 100.667 17.0696C100.233 17.0696 99.8464 16.9635 99.5083 16.7514C99.1703 16.5393 98.9043 16.2377 98.7104 15.8466C98.5165 15.4555 98.4196 14.9915 98.4196 14.4545C98.4196 13.9176 98.5165 13.4536 98.7104 13.0625C98.9043 12.6714 99.1703 12.3698 99.5083 12.1577C99.8464 11.9455 100.233 11.8395 100.667 11.8395C100.924 11.8395 101.165 11.8768 101.39 11.9513C101.617 12.0259 101.822 12.1353 102.004 12.2795C102.186 12.422 102.339 12.596 102.461 12.8015C102.584 13.0053 102.669 13.2382 102.715 13.5ZM105.183 17.0795C104.838 17.0795 104.536 16.9975 104.275 16.8335C104.017 16.6694 103.815 16.4399 103.669 16.1449C103.525 15.8499 103.453 15.5052 103.453 15.1108C103.453 14.7131 103.525 14.3659 103.669 14.0692C103.815 13.7726 104.017 13.5423 104.275 13.3782C104.536 13.2141 104.838 13.1321 105.183 13.1321C105.527 13.1321 105.829 13.2141 106.088 13.3782C106.348 13.5423 106.55 13.7726 106.694 14.0692C106.84 14.3659 106.913 14.7131 106.913 15.1108C106.913 15.5052 106.84 15.8499 106.694 16.1449C106.55 16.4399 106.348 16.6694 106.088 16.8335C105.829 16.9975 105.527 17.0795 105.183 17.0795ZM105.183 16.5526C105.445 16.5526 105.66 16.4854 105.829 16.3512C105.998 16.217 106.123 16.0405 106.204 15.8217C106.286 15.603 106.326 15.366 106.326 15.1108C106.326 14.8556 106.286 14.6178 106.204 14.3974C106.123 14.177 105.998 13.9988 105.829 13.8629C105.66 13.727 105.445 13.6591 105.183 13.6591C104.921 13.6591 104.706 13.727 104.536 13.8629C104.367 13.9988 104.242 14.177 104.161 14.3974C104.08 14.6178 104.039 14.8556 104.039 15.1108C104.039 15.366 104.08 15.603 104.161 15.8217C104.242 16.0405 104.367 16.217 104.536 16.3512C104.706 16.4854 104.921 16.5526 105.183 16.5526ZM108.395 14.7031V17H107.808V13.1818H108.375V13.7784H108.425C108.514 13.5845 108.65 13.4287 108.833 13.3111C109.015 13.1918 109.25 13.1321 109.539 13.1321C109.797 13.1321 110.023 13.1851 110.217 13.2912C110.411 13.3956 110.562 13.5547 110.67 13.7685C110.777 13.9806 110.831 14.2491 110.831 14.5739V17H110.244V14.6136C110.244 14.3137 110.167 14.08 110.011 13.9126C109.855 13.7436 109.641 13.6591 109.369 13.6591C109.182 13.6591 109.015 13.6997 108.867 13.7809C108.722 13.8621 108.606 13.9806 108.522 14.1364C108.437 14.2921 108.395 14.4811 108.395 14.7031ZM114.608 14.0369L114.081 14.1861C114.048 14.0982 113.999 14.0129 113.934 13.93C113.871 13.8455 113.785 13.7759 113.676 13.7212C113.566 13.6665 113.426 13.6392 113.255 13.6392C113.022 13.6392 112.827 13.6931 112.671 13.8008C112.517 13.9068 112.44 14.0419 112.44 14.206C112.44 14.3518 112.493 14.467 112.599 14.5515C112.705 14.636 112.871 14.7064 113.096 14.7628L113.663 14.902C114.004 14.9848 114.259 15.1116 114.426 15.2823C114.594 15.4513 114.677 15.6693 114.677 15.9361C114.677 16.1548 114.614 16.3504 114.488 16.5227C114.364 16.6951 114.19 16.831 113.966 16.9304C113.743 17.0298 113.482 17.0795 113.186 17.0795C112.796 17.0795 112.474 16.995 112.219 16.826C111.964 16.657 111.802 16.41 111.734 16.0852L112.291 15.946C112.344 16.1515 112.444 16.3056 112.592 16.4084C112.741 16.5111 112.936 16.5625 113.176 16.5625C113.449 16.5625 113.666 16.5045 113.827 16.3885C113.99 16.2708 114.071 16.13 114.071 15.9659C114.071 15.8333 114.024 15.7223 113.932 15.6328C113.839 15.5417 113.696 15.4737 113.504 15.429L112.868 15.2798C112.518 15.197 112.261 15.0685 112.097 14.8945C111.935 14.7189 111.853 14.4993 111.853 14.2358C111.853 14.0204 111.914 13.8298 112.035 13.6641C112.158 13.4983 112.324 13.3683 112.535 13.2738C112.747 13.1793 112.987 13.1321 113.255 13.1321C113.633 13.1321 113.93 13.215 114.145 13.3807C114.362 13.5464 114.517 13.7652 114.608 14.0369ZM117.967 15.4389V13.1818H118.553V17H117.967V16.3537H117.927C117.837 16.5476 117.698 16.7125 117.509 16.8484C117.32 16.9826 117.082 17.0497 116.793 17.0497C116.555 17.0497 116.343 16.9975 116.157 16.8931C115.971 16.7871 115.826 16.628 115.719 16.4158C115.613 16.2021 115.56 15.9328 115.56 15.608V13.1818H116.147V15.5682C116.147 15.8466 116.225 16.0687 116.381 16.2344C116.538 16.4001 116.739 16.483 116.982 16.483C117.128 16.483 117.276 16.4457 117.427 16.3711C117.58 16.2965 117.707 16.1822 117.81 16.0281C117.914 15.8739 117.967 15.6776 117.967 15.4389ZM120.214 11.9091V17H119.628V11.9091H120.214ZM122.949 13.1818V13.679H120.971V13.1818H122.949ZM121.547 12.267H122.134V15.9062C122.134 16.072 122.158 16.1963 122.206 16.2791C122.256 16.3603 122.319 16.415 122.395 16.4432C122.473 16.4697 122.555 16.483 122.641 16.483C122.706 16.483 122.759 16.4796 122.8 16.473C122.842 16.4647 122.875 16.4581 122.9 16.4531L123.019 16.9801C122.979 16.995 122.924 17.0099 122.852 17.0249C122.781 17.0414 122.691 17.0497 122.581 17.0497C122.416 17.0497 122.253 17.0141 122.094 16.9428C121.937 16.8716 121.806 16.763 121.702 16.6172C121.599 16.4714 121.547 16.2874 121.547 16.0653V12.267ZM124.955 17.0895C124.713 17.0895 124.494 17.0439 124.297 16.9528C124.099 16.86 123.943 16.7266 123.827 16.5526C123.711 16.3769 123.653 16.1648 123.653 15.9162C123.653 15.6974 123.696 15.5201 123.782 15.3842C123.868 15.2467 123.983 15.139 124.128 15.0611C124.272 14.9832 124.431 14.9252 124.605 14.8871C124.781 14.8473 124.957 14.8158 125.134 14.7926C125.366 14.7628 125.555 14.7404 125.699 14.7255C125.845 14.7089 125.951 14.6816 126.017 14.6435C126.085 14.6054 126.119 14.5391 126.119 14.4446V14.4247C126.119 14.1795 126.052 13.9889 125.917 13.853C125.785 13.7171 125.584 13.6491 125.313 13.6491C125.033 13.6491 124.814 13.7105 124.655 13.8331C124.496 13.9557 124.384 14.0866 124.319 14.2259L123.762 14.027C123.862 13.795 123.994 13.6143 124.16 13.4851C124.327 13.3542 124.51 13.263 124.707 13.2116C124.906 13.1586 125.101 13.1321 125.294 13.1321C125.416 13.1321 125.557 13.147 125.716 13.1768C125.877 13.205 126.032 13.2638 126.181 13.3533C126.332 13.4428 126.457 13.5779 126.556 13.7585C126.656 13.9392 126.705 14.1811 126.705 14.4844V17H126.119V16.483H126.089C126.049 16.5658 125.983 16.6545 125.89 16.7489C125.797 16.8434 125.674 16.9238 125.52 16.9901C125.366 17.0563 125.177 17.0895 124.955 17.0895ZM125.045 16.5625C125.277 16.5625 125.472 16.5169 125.632 16.4258C125.792 16.3346 125.913 16.217 125.994 16.0728C126.077 15.9286 126.119 15.777 126.119 15.6179V15.081C126.094 15.1108 126.039 15.1381 125.955 15.163C125.872 15.1862 125.776 15.2069 125.666 15.2251C125.559 15.2417 125.453 15.2566 125.351 15.2699C125.25 15.2815 125.168 15.2914 125.105 15.2997C124.952 15.3196 124.81 15.3519 124.677 15.3967C124.546 15.4397 124.44 15.5052 124.359 15.593C124.279 15.6792 124.24 15.7969 124.24 15.946C124.24 16.1499 124.315 16.304 124.466 16.4084C124.618 16.5111 124.811 16.5625 125.045 16.5625ZM128.363 14.7031V17H127.776V13.1818H128.343V13.7784H128.393C128.482 13.5845 128.618 13.4287 128.8 13.3111C128.983 13.1918 129.218 13.1321 129.506 13.1321C129.765 13.1321 129.991 13.1851 130.185 13.2912C130.379 13.3956 130.53 13.5547 130.637 13.7685C130.745 13.9806 130.799 14.2491 130.799 14.5739V17H130.212V14.6136C130.212 14.3137 130.134 14.08 129.979 13.9126C129.823 13.7436 129.609 13.6591 129.337 13.6591C129.15 13.6591 128.983 13.6997 128.835 13.7809C128.689 13.8621 128.574 13.9806 128.49 14.1364C128.405 14.2921 128.363 14.4811 128.363 14.7031ZM133.531 13.1818V13.679H131.553V13.1818H133.531ZM132.129 12.267H132.716V15.9062C132.716 16.072 132.74 16.1963 132.788 16.2791C132.838 16.3603 132.901 16.415 132.977 16.4432C133.055 16.4697 133.137 16.483 133.223 16.483C133.288 16.483 133.341 16.4796 133.382 16.473C133.424 16.4647 133.457 16.4581 133.482 16.4531L133.601 16.9801C133.561 16.995 133.506 17.0099 133.434 17.0249C133.363 17.0414 133.273 17.0497 133.164 17.0497C132.998 17.0497 132.835 17.0141 132.676 16.9428C132.519 16.8716 132.388 16.763 132.284 16.6172C132.181 16.4714 132.129 16.2874 132.129 16.0653V12.267ZM136.591 14.4545C136.591 13.8281 136.673 13.2522 136.835 12.7269C136.999 12.1999 137.233 11.7152 137.536 11.2727H138.053C137.934 11.4368 137.822 11.639 137.718 11.8793C137.615 12.1179 137.524 12.3806 137.447 12.6673C137.369 12.9523 137.307 13.2473 137.263 13.5522C137.22 13.8571 137.198 14.1579 137.198 14.4545C137.198 14.849 137.236 15.2492 137.312 15.6552C137.389 16.0612 137.491 16.4382 137.621 16.7862C137.75 17.1342 137.894 17.4176 138.053 17.6364H137.536C137.233 17.1939 136.999 16.71 136.835 16.1847C136.673 15.6577 136.591 15.081 136.591 14.4545ZM139.207 17H138.561L140.43 11.9091H141.066L142.936 17H142.29L140.768 12.7145H140.728L139.207 17ZM139.446 15.0114H142.051V15.5582H139.446V15.0114ZM144.345 11.9091V17H143.729V11.9091H144.345ZM149.678 13.5H149.061C149.025 13.3227 148.961 13.1669 148.87 13.0327C148.781 12.8984 148.671 12.7857 148.542 12.6946C148.414 12.6018 148.273 12.5322 148.117 12.4858C147.961 12.4394 147.799 12.4162 147.63 12.4162C147.321 12.4162 147.042 12.4941 146.792 12.6499C146.543 12.8056 146.345 13.0352 146.198 13.3384C146.052 13.6417 145.979 14.0137 145.979 14.4545C145.979 14.8954 146.052 15.2674 146.198 15.5707C146.345 15.8739 146.543 16.1035 146.792 16.2592C147.042 16.415 147.321 16.4929 147.63 16.4929C147.799 16.4929 147.961 16.4697 148.117 16.4233C148.273 16.3769 148.414 16.3081 148.542 16.217C148.671 16.1242 148.781 16.0107 148.87 15.8764C148.961 15.7405 149.025 15.5848 149.061 15.4091H149.678C149.632 15.6693 149.547 15.9021 149.424 16.1076C149.302 16.3131 149.149 16.4879 148.967 16.6321C148.785 16.7746 148.58 16.8832 148.353 16.9577C148.128 17.0323 147.886 17.0696 147.63 17.0696C147.195 17.0696 146.809 16.9635 146.471 16.7514C146.133 16.5393 145.867 16.2377 145.673 15.8466C145.479 15.4555 145.382 14.9915 145.382 14.4545C145.382 13.9176 145.479 13.4536 145.673 13.0625C145.867 12.6714 146.133 12.3698 146.471 12.1577C146.809 11.9455 147.195 11.8395 147.63 11.8395C147.886 11.8395 148.128 11.8768 148.353 11.9513C148.58 12.0259 148.785 12.1353 148.967 12.2795C149.149 12.422 149.302 12.596 149.424 12.8015C149.547 13.0053 149.632 13.2382 149.678 13.5ZM151.847 14.4545C151.847 15.081 151.765 15.6577 151.601 16.1847C151.439 16.71 151.206 17.1939 150.903 17.6364H150.386C150.505 17.4723 150.616 17.2701 150.719 17.0298C150.823 16.7912 150.914 16.5294 150.992 16.2443C151.07 15.9576 151.131 15.6618 151.174 15.3569C151.218 15.0503 151.241 14.7495 151.241 14.4545C151.241 14.0601 151.203 13.6599 151.127 13.2539C151.05 12.8479 150.948 12.4709 150.818 12.1229C150.689 11.7749 150.545 11.4915 150.386 11.2727H150.903C151.206 11.7152 151.439 12.1999 151.601 12.7269C151.765 13.2522 151.847 13.8281 151.847 14.4545Z" fill="#1B3C8F"/>
<path d="M29.4403 26V22.3636H30.7116C30.965 22.3636 31.1739 22.4074 31.3384 22.495C31.503 22.5814 31.6255 22.698 31.706 22.8448C31.7865 22.9904 31.8267 23.152 31.8267 23.3295C31.8267 23.4858 31.7989 23.6148 31.7433 23.7166C31.6888 23.8184 31.6166 23.8989 31.5266 23.9581C31.4379 24.0173 31.3414 24.0611 31.2372 24.0895V24.125C31.3485 24.1321 31.4603 24.1712 31.5728 24.2422C31.6853 24.3132 31.7794 24.415 31.8551 24.5476C31.9309 24.6802 31.9688 24.8423 31.9688 25.0341C31.9688 25.2164 31.9273 25.3803 31.8445 25.5259C31.7616 25.6715 31.6308 25.7869 31.4521 25.8722C31.2733 25.9574 31.0407 26 30.7543 26H29.4403ZM29.8807 25.6094H30.7543C31.0419 25.6094 31.2461 25.5537 31.3668 25.4425C31.4888 25.33 31.5497 25.1939 31.5497 25.0341C31.5497 24.911 31.5183 24.7973 31.4556 24.6932C31.3929 24.5878 31.3035 24.5038 31.1875 24.4411C31.0715 24.3771 30.9342 24.3452 30.7756 24.3452H29.8807V25.6094ZM29.8807 23.9616H30.6974C30.83 23.9616 30.9496 23.9356 31.0561 23.8835C31.1638 23.8314 31.2491 23.758 31.3118 23.6634C31.3757 23.5687 31.4077 23.4574 31.4077 23.3295C31.4077 23.1697 31.352 23.0342 31.2408 22.9229C31.1295 22.8105 30.9531 22.7543 30.7116 22.7543H29.8807V23.9616ZM33.7789 26.0568C33.5162 26.0568 33.2895 25.9988 33.0989 25.8828C32.9095 25.7656 32.7633 25.6023 32.6603 25.3928C32.5585 25.1821 32.5076 24.937 32.5076 24.6577C32.5076 24.3783 32.5585 24.1321 32.6603 23.919C32.7633 23.7048 32.9065 23.5379 33.09 23.4183C33.2747 23.2976 33.4901 23.2372 33.7363 23.2372C33.8784 23.2372 34.0186 23.2609 34.1571 23.3082C34.2956 23.3556 34.4217 23.4325 34.5353 23.5391C34.649 23.6444 34.7395 23.7841 34.807 23.9581C34.8745 24.1321 34.9082 24.3464 34.9082 24.6009V24.7784H32.8059V24.4162H34.4821C34.4821 24.2623 34.4513 24.125 34.3897 24.0043C34.3294 23.8835 34.243 23.7882 34.1305 23.7184C34.0192 23.6486 33.8878 23.6136 33.7363 23.6136C33.5694 23.6136 33.425 23.6551 33.3031 23.7379C33.1824 23.8196 33.0894 23.9261 33.0243 24.0575C32.9592 24.1889 32.9267 24.3298 32.9267 24.4801V24.7216C32.9267 24.9276 32.9622 25.1022 33.0332 25.2454C33.1054 25.3874 33.2054 25.4957 33.3333 25.5703C33.4611 25.6437 33.6097 25.6804 33.7789 25.6804C33.889 25.6804 33.9885 25.665 34.0772 25.6342C34.1672 25.6023 34.2447 25.5549 34.3098 25.4922C34.3749 25.4283 34.4252 25.349 34.4608 25.2543L34.8656 25.3679C34.823 25.5052 34.7514 25.6259 34.6507 25.7301C34.5501 25.8331 34.4258 25.9136 34.2779 25.9716C34.1299 26.0284 33.9636 26.0568 33.7789 26.0568ZM36.6465 27.0795C36.4441 27.0795 36.2701 27.0535 36.1245 27.0014C35.9789 26.9505 35.8575 26.883 35.7605 26.799C35.6646 26.7161 35.5882 26.6274 35.5314 26.5327L35.8652 26.2983C35.9031 26.348 35.9511 26.4048 36.0091 26.4688C36.0671 26.5339 36.1464 26.5901 36.247 26.6374C36.3488 26.686 36.4819 26.7102 36.6465 26.7102C36.8667 26.7102 37.0484 26.657 37.1916 26.5504C37.3348 26.4439 37.4064 26.277 37.4064 26.0497V25.4957H37.3709C37.3401 25.5455 37.2963 25.607 37.2395 25.6804C37.1839 25.7526 37.1034 25.8171 36.998 25.8739C36.8939 25.9296 36.753 25.9574 36.5755 25.9574C36.3553 25.9574 36.1576 25.9053 35.9824 25.8011C35.8084 25.697 35.6705 25.5455 35.5687 25.3466C35.4681 25.1477 35.4178 24.9062 35.4178 24.6222C35.4178 24.3428 35.4669 24.0996 35.5652 23.8924C35.6634 23.6841 35.8001 23.5231 35.9753 23.4094C36.1505 23.2946 36.3529 23.2372 36.5826 23.2372C36.7601 23.2372 36.901 23.2668 37.0051 23.326C37.1105 23.384 37.191 23.4503 37.2466 23.5249C37.3034 23.5982 37.3472 23.6586 37.378 23.706H37.4206V23.2727H37.8255V26.0781C37.8255 26.3125 37.7722 26.5031 37.6657 26.6499C37.5603 26.7978 37.4183 26.9061 37.2395 26.9748C37.062 27.0446 36.8643 27.0795 36.6465 27.0795ZM36.6323 25.581C36.8004 25.581 36.9424 25.5425 37.0584 25.4656C37.1744 25.3886 37.2626 25.2779 37.323 25.1335C37.3833 24.9891 37.4135 24.8163 37.4135 24.6151C37.4135 24.4186 37.3839 24.2451 37.3248 24.0948C37.2656 23.9445 37.178 23.8267 37.062 23.7415C36.946 23.6562 36.8027 23.6136 36.6323 23.6136C36.4547 23.6136 36.3068 23.6586 36.1884 23.7486C36.0712 23.8385 35.983 23.9593 35.9238 24.1108C35.8658 24.2623 35.8368 24.4304 35.8368 24.6151C35.8368 24.8045 35.8664 24.9719 35.9256 25.1175C35.986 25.262 36.0748 25.3756 36.1919 25.4585C36.3103 25.5401 36.4571 25.581 36.6323 25.581ZM38.5925 26V23.2727H39.0115V26H38.5925ZM38.8056 22.8182C38.7239 22.8182 38.6535 22.7904 38.5943 22.7347C38.5363 22.6791 38.5073 22.6122 38.5073 22.5341C38.5073 22.456 38.5363 22.3891 38.5943 22.3335C38.6535 22.2778 38.7239 22.25 38.8056 22.25C38.8873 22.25 38.9571 22.2778 39.0151 22.3335C39.0743 22.3891 39.1039 22.456 39.1039 22.5341C39.1039 22.6122 39.0743 22.6791 39.0151 22.7347C38.9571 22.7904 38.8873 22.8182 38.8056 22.8182ZM40.1981 24.3594V26H39.779V23.2727H40.1839V23.6989H40.2194C40.2833 23.5604 40.3804 23.4491 40.5106 23.3651C40.6408 23.2798 40.8089 23.2372 41.0148 23.2372C41.1995 23.2372 41.3611 23.2751 41.4996 23.3509C41.6381 23.4254 41.7458 23.5391 41.8227 23.6918C41.8997 23.8433 41.9381 24.035 41.9381 24.267V26H41.5191V24.2955C41.5191 24.0812 41.4635 23.9143 41.3522 23.7947C41.2409 23.674 41.0882 23.6136 40.8941 23.6136C40.7603 23.6136 40.6408 23.6426 40.5354 23.7006C40.4313 23.7586 40.349 23.8433 40.2886 23.9545C40.2282 24.0658 40.1981 24.2008 40.1981 24.3594ZM43.8473 26.0568C43.5845 26.0568 43.3578 25.9988 43.1673 25.8828C42.9779 25.7656 42.8317 25.6023 42.7287 25.3928C42.6269 25.1821 42.576 24.937 42.576 24.6577C42.576 24.3783 42.6269 24.1321 42.7287 23.919C42.8317 23.7048 42.9749 23.5379 43.1584 23.4183C43.343 23.2976 43.5585 23.2372 43.8047 23.2372C43.9467 23.2372 44.087 23.2609 44.2255 23.3082C44.364 23.3556 44.4901 23.4325 44.6037 23.5391C44.7173 23.6444 44.8079 23.7841 44.8754 23.9581C44.9428 24.1321 44.9766 24.3464 44.9766 24.6009V24.7784H42.8743V24.4162H44.5504C44.5504 24.2623 44.5196 24.125 44.4581 24.0043C44.3977 23.8835 44.3113 23.7882 44.1989 23.7184C44.0876 23.6486 43.9562 23.6136 43.8047 23.6136C43.6378 23.6136 43.4934 23.6551 43.3714 23.7379C43.2507 23.8196 43.1578 23.9261 43.0927 24.0575C43.0276 24.1889 42.995 24.3298 42.995 24.4801V24.7216C42.995 24.9276 43.0305 25.1022 43.1016 25.2454C43.1738 25.3874 43.2738 25.4957 43.4016 25.5703C43.5295 25.6437 43.678 25.6804 43.8473 25.6804C43.9574 25.6804 44.0568 25.665 44.1456 25.6342C44.2356 25.6023 44.3131 25.5549 44.3782 25.4922C44.4433 25.4283 44.4936 25.349 44.5291 25.2543L44.9339 25.3679C44.8913 25.5052 44.8197 25.6259 44.7191 25.7301C44.6185 25.8331 44.4942 25.9136 44.3462 25.9716C44.1983 26.0284 44.032 26.0568 43.8473 26.0568ZM46.7575 26.0568C46.4947 26.0568 46.268 25.9988 46.0774 25.8828C45.888 25.7656 45.7418 25.6023 45.6388 25.3928C45.5371 25.1821 45.4862 24.937 45.4862 24.6577C45.4862 24.3783 45.5371 24.1321 45.6388 23.919C45.7418 23.7048 45.8851 23.5379 46.0685 23.4183C46.2532 23.2976 46.4686 23.2372 46.7148 23.2372C46.8569 23.2372 46.9972 23.2609 47.1357 23.3082C47.2741 23.3556 47.4002 23.4325 47.5138 23.5391C47.6275 23.6444 47.718 23.7841 47.7855 23.9581C47.853 24.1321 47.8867 24.3464 47.8867 24.6009V24.7784H45.7844V24.4162H47.4606C47.4606 24.2623 47.4298 24.125 47.3683 24.0043C47.3079 23.8835 47.2215 23.7882 47.109 23.7184C46.9978 23.6486 46.8664 23.6136 46.7148 23.6136C46.5479 23.6136 46.4035 23.6551 46.2816 23.7379C46.1609 23.8196 46.0679 23.9261 46.0028 24.0575C45.9377 24.1889 45.9052 24.3298 45.9052 24.4801V24.7216C45.9052 24.9276 45.9407 25.1022 46.0117 25.2454C46.0839 25.3874 46.1839 25.4957 46.3118 25.5703C46.4396 25.6437 46.5882 25.6804 46.7575 25.6804C46.8675 25.6804 46.967 25.665 47.0558 25.6342C47.1457 25.6023 47.2232 25.5549 47.2884 25.4922C47.3535 25.4283 47.4038 25.349 47.4393 25.2543L47.8441 25.3679C47.8015 25.5052 47.7299 25.6259 47.6293 25.7301C47.5286 25.8331 47.4044 25.9136 47.2564 25.9716C47.1084 26.0284 46.9421 26.0568 46.7575 26.0568ZM48.5241 26V23.2727H48.929V23.6847H48.9574C49.0071 23.5497 49.0971 23.4402 49.2273 23.3562C49.3575 23.2721 49.5043 23.2301 49.6676 23.2301C49.6984 23.2301 49.7369 23.2307 49.783 23.2319C49.8292 23.2331 49.8641 23.2348 49.8878 23.2372V23.6634C49.8736 23.6598 49.841 23.6545 49.7901 23.6474C49.7404 23.6391 49.6877 23.6349 49.6321 23.6349C49.4995 23.6349 49.3812 23.6628 49.277 23.7184C49.174 23.7728 49.0923 23.8486 49.032 23.9457C48.9728 24.0415 48.9432 24.151 48.9432 24.2741V26H48.5241ZM50.697 25.5028L50.6686 25.6946C50.6485 25.8295 50.6177 25.974 50.5763 26.1278C50.536 26.2817 50.494 26.4267 50.4502 26.5629C50.4064 26.699 50.3703 26.8073 50.3419 26.8878H50.0223C50.0377 26.812 50.0578 26.712 50.0827 26.5877C50.1075 26.4634 50.1324 26.3243 50.1572 26.1705C50.1833 26.0178 50.2046 25.8615 50.2211 25.7017L50.2425 25.5028H50.697ZM51.4663 26V25.6804L52.6665 24.3665C52.8074 24.2126 52.9234 24.0788 53.0146 23.9652C53.1057 23.8504 53.1732 23.7427 53.217 23.642C53.262 23.5402 53.2844 23.4337 53.2844 23.3224C53.2844 23.1946 53.2537 23.0839 53.1921 22.9904C53.1317 22.8969 53.0489 22.8247 52.9435 22.7738C52.8382 22.7229 52.7198 22.6974 52.5884 22.6974C52.4487 22.6974 52.3268 22.7264 52.2227 22.7844C52.1197 22.8413 52.0398 22.9212 51.983 23.0241C51.9273 23.1271 51.8995 23.2479 51.8995 23.3864H51.4805C51.4805 23.1733 51.5296 22.9863 51.6278 22.8253C51.7261 22.6643 51.8598 22.5388 52.0291 22.4489C52.1996 22.3589 52.3907 22.3139 52.6026 22.3139C52.8157 22.3139 53.0045 22.3589 53.169 22.4489C53.3336 22.5388 53.4626 22.6602 53.5561 22.8129C53.6496 22.9656 53.6964 23.1354 53.6964 23.3224C53.6964 23.4562 53.6721 23.587 53.6236 23.7148C53.5762 23.8415 53.4934 23.983 53.375 24.1392C53.2578 24.2943 53.0951 24.4837 52.8867 24.7074L52.07 25.581V25.6094H53.7603V26H51.4663ZM56.0632 23.9865V24.3771H54.4723V23.9865H56.0632ZM58.0718 22.3636V26H57.6315V22.8253H57.6102L56.7224 23.4148V22.9673L57.6315 22.3636H58.0718ZM60.3037 26.0497C60.0362 26.0497 59.8083 25.9769 59.6201 25.8313C59.4319 25.6845 59.2881 25.4721 59.1887 25.1939C59.0892 24.9145 59.0395 24.5772 59.0395 24.1818C59.0395 23.7888 59.0892 23.4532 59.1887 23.1751C59.2893 22.8957 59.4337 22.6826 59.6219 22.5359C59.8113 22.3879 60.0386 22.3139 60.3037 22.3139C60.5689 22.3139 60.7955 22.3879 60.9838 22.5359C61.1731 22.6826 61.3176 22.8957 61.417 23.1751C61.5176 23.4532 61.5679 23.7888 61.5679 24.1818C61.5679 24.5772 61.5182 24.9145 61.4188 25.1939C61.3193 25.4721 61.1755 25.6845 60.9873 25.8313C60.7991 25.9769 60.5712 26.0497 60.3037 26.0497ZM60.3037 25.6591C60.5689 25.6591 60.7748 25.5312 60.9216 25.2756C61.0684 25.0199 61.1418 24.6553 61.1418 24.1818C61.1418 23.867 61.108 23.5988 61.0406 23.3775C60.9743 23.1561 60.8784 22.9875 60.7529 22.8714C60.6286 22.7554 60.4789 22.6974 60.3037 22.6974C60.0409 22.6974 59.8356 22.8271 59.6876 23.0863C59.5396 23.3443 59.4656 23.7095 59.4656 24.1818C59.4656 24.4967 59.4988 24.7642 59.5651 24.9844C59.6314 25.2045 59.7267 25.372 59.8509 25.4869C59.9764 25.6017 60.1273 25.6591 60.3037 25.6591ZM64.3733 26L63.379 22.3636H63.8264L64.5864 25.3253H64.6219L65.396 22.3636H65.8932L66.6673 25.3253H66.7029L67.4628 22.3636H67.9102L66.9159 26H66.4614L65.6588 23.1023H65.6304L64.8279 26H64.3733ZM69.2916 26.0568C69.0289 26.0568 68.8022 25.9988 68.6116 25.8828C68.4222 25.7656 68.276 25.6023 68.173 25.3928C68.0712 25.1821 68.0203 24.937 68.0203 24.6577C68.0203 24.3783 68.0712 24.1321 68.173 23.919C68.276 23.7048 68.4192 23.5379 68.6027 23.4183C68.7874 23.2976 69.0028 23.2372 69.249 23.2372C69.3911 23.2372 69.5313 23.2609 69.6698 23.3082C69.8083 23.3556 69.9344 23.4325 70.048 23.5391C70.1617 23.6444 70.2522 23.7841 70.3197 23.9581C70.3872 24.1321 70.4209 24.3464 70.4209 24.6009V24.7784H68.3186V24.4162H69.9948C69.9948 24.2623 69.964 24.125 69.9024 24.0043C69.8421 23.8835 69.7557 23.7882 69.6432 23.7184C69.5319 23.6486 69.4005 23.6136 69.249 23.6136C69.0821 23.6136 68.9377 23.6551 68.8158 23.7379C68.695 23.8196 68.6021 23.9261 68.537 24.0575C68.4719 24.1889 68.4394 24.3298 68.4394 24.4801V24.7216C68.4394 24.9276 68.4749 25.1022 68.5459 25.2454C68.6181 25.3874 68.7181 25.4957 68.846 25.5703C68.9738 25.6437 69.1224 25.6804 69.2916 25.6804C69.4017 25.6804 69.5012 25.665 69.5899 25.6342C69.6799 25.6023 69.7574 25.5549 69.8225 25.4922C69.8876 25.4283 69.9379 25.349 69.9735 25.2543L70.3783 25.3679C70.3357 25.5052 70.2641 25.6259 70.1634 25.7301C70.0628 25.8331 69.9385 25.9136 69.7906 25.9716C69.6426 26.0284 69.4763 26.0568 69.2916 26.0568ZM72.2018 26.0568C71.939 26.0568 71.7123 25.9988 71.5218 25.8828C71.3324 25.7656 71.1862 25.6023 71.0832 25.3928C70.9814 25.1821 70.9305 24.937 70.9305 24.6577C70.9305 24.3783 70.9814 24.1321 71.0832 23.919C71.1862 23.7048 71.3294 23.5379 71.5129 23.4183C71.6975 23.2976 71.913 23.2372 72.1592 23.2372C72.3012 23.2372 72.4415 23.2609 72.58 23.3082C72.7185 23.3556 72.8445 23.4325 72.9582 23.5391C73.0718 23.6444 73.1624 23.7841 73.2298 23.9581C73.2973 24.1321 73.3311 24.3464 73.3311 24.6009V24.7784H71.2288V24.4162H72.9049C72.9049 24.2623 72.8741 24.125 72.8126 24.0043C72.7522 23.8835 72.6658 23.7882 72.5534 23.7184C72.4421 23.6486 72.3107 23.6136 72.1592 23.6136C71.9923 23.6136 71.8479 23.6551 71.7259 23.7379C71.6052 23.8196 71.5123 23.9261 71.4472 24.0575C71.3821 24.1889 71.3495 24.3298 71.3495 24.4801V24.7216C71.3495 24.9276 71.385 25.1022 71.4561 25.2454C71.5283 25.3874 71.6283 25.4957 71.7561 25.5703C71.884 25.6437 72.0325 25.6804 72.2018 25.6804C72.3119 25.6804 72.4113 25.665 72.5001 25.6342C72.5901 25.6023 72.6676 25.5549 72.7327 25.4922C72.7978 25.4283 72.8481 25.349 72.8836 25.2543L73.2884 25.3679C73.2458 25.5052 73.1742 25.6259 73.0736 25.7301C72.973 25.8331 72.8487 25.9136 72.7007 25.9716C72.5528 26.0284 72.3865 26.0568 72.2018 26.0568ZM74.3591 25.0057L74.352 24.4872H74.4372L75.6304 23.2727H76.1489L74.8776 24.5582H74.8421L74.3591 25.0057ZM73.9685 26V22.3636H74.3875V26H73.9685ZM75.7014 26L74.6361 24.6506L74.9344 24.3594L76.2341 26H75.7014ZM78.62 23.8835L78.2436 23.9901C78.2199 23.9273 78.185 23.8664 78.1388 23.8072C78.0939 23.7468 78.0323 23.6971 77.9542 23.658C77.8761 23.619 77.776 23.5994 77.6541 23.5994C77.4872 23.5994 77.3481 23.6379 77.2369 23.7148C77.1268 23.7906 77.0717 23.8871 77.0717 24.0043C77.0717 24.1084 77.1096 24.1907 77.1854 24.2511C77.2611 24.3114 77.3795 24.3617 77.5405 24.402L77.9453 24.5014C78.1892 24.5606 78.3709 24.6512 78.4904 24.7731C78.61 24.8938 78.6697 25.0495 78.6697 25.2401C78.6697 25.3963 78.6248 25.536 78.5348 25.6591C78.446 25.7822 78.3217 25.8793 78.1619 25.9503C78.0021 26.0213 77.8163 26.0568 77.6044 26.0568C77.3262 26.0568 77.096 25.9964 76.9137 25.8757C76.7314 25.755 76.616 25.5786 76.5675 25.3466L76.9652 25.2472C77.0031 25.3939 77.0747 25.504 77.18 25.5774C77.2866 25.6508 77.4257 25.6875 77.5973 25.6875C77.7926 25.6875 77.9477 25.6461 78.0625 25.5632C78.1785 25.4792 78.2365 25.3786 78.2365 25.2614C78.2365 25.1667 78.2034 25.0874 78.1371 25.0234C78.0708 24.9583 77.969 24.9098 77.8317 24.8778L77.3771 24.7713C77.1274 24.7121 76.9439 24.6204 76.8267 24.4961C76.7107 24.3706 76.6527 24.2138 76.6527 24.0256C76.6527 23.8717 76.6959 23.7356 76.7823 23.6172C76.8699 23.4988 76.9889 23.4059 77.1392 23.3384C77.2907 23.271 77.4624 23.2372 77.6541 23.2372C77.924 23.2372 78.1359 23.2964 78.2898 23.4148C78.4448 23.5331 78.5549 23.6894 78.62 23.8835Z" fill="black"/>
<mask id="path-4-inside-1_50_29" fill="white">
<path d="M11.5 3L0 16V17.5V34.5L31 3H11.5Z"/>
</mask>
<path d="M0 16L-17.2269 0.760801L-23 7.28689V16H0ZM11.5 3V-20H1.1384L-5.72692 -12.2392L11.5 3ZM31 3L47.393 19.1328L85.9047 -20L31 -20V3ZM0 34.5H-23V90.6612L16.393 50.6328L0 34.5ZM17.2269 31.2392L28.7269 18.2392L-5.72692 -12.2392L-17.2269 0.760801L17.2269 31.2392ZM11.5 26H31V-20H11.5V26ZM14.607 -13.1328L-16.393 18.3672L16.393 50.6328L47.393 19.1328L14.607 -13.1328ZM23 34.5V17.5H-23V34.5H23ZM23 17.5V16H-23V17.5H23Z" fill="#FF0000" mask="url(#path-4-inside-1_50_29)"/>
<path d="M9.17967 19.8647L5.61113 17.0493L5.79149 16.8207L9.36003 19.6361L9.17967 19.8647ZM7.28877 17.1244C7.13432 17.0297 6.97114 17.011 6.79923 17.0684C6.62732 17.1258 6.47318 17.2409 6.3368 17.4137C6.23709 17.5401 6.17028 17.6668 6.13639 17.7939C6.10323 17.92 6.10153 18.0378 6.13129 18.1472C6.16179 18.2557 6.22258 18.3459 6.31365 18.4177C6.38985 18.4778 6.46966 18.5114 6.55309 18.5184C6.63632 18.5238 6.71878 18.5119 6.80048 18.4829C6.88125 18.4532 6.95818 18.4159 7.03127 18.371C7.10343 18.3254 7.16738 18.2816 7.22311 18.2396L7.52992 18.0113C7.60809 17.9523 7.7003 17.8909 7.80653 17.8269C7.9135 17.7621 8.02972 17.7113 8.15518 17.6746C8.28045 17.6362 8.41071 17.6259 8.54597 17.6436C8.68123 17.6614 8.81577 17.7231 8.94959 17.8286C9.10386 17.9503 9.21136 18.1008 9.2721 18.2798C9.33357 18.458 9.34016 18.6532 9.29187 18.8654C9.24431 19.0766 9.13401 19.2919 8.96098 19.5112C8.79968 19.7157 8.62702 19.8667 8.44299 19.9643C8.2597 20.0609 8.07532 20.1054 7.88984 20.0978C7.7051 20.0892 7.53027 20.0289 7.36535 19.9169L7.64689 19.5601C7.76202 19.6358 7.87983 19.67 8.00031 19.6625C8.1206 19.6534 8.23643 19.6136 8.3478 19.5431C8.45897 19.471 8.55928 19.3783 8.64873 19.2649C8.75284 19.1329 8.82495 18.9976 8.86505 18.8588C8.90423 18.7194 8.90944 18.5885 8.8807 18.4664C8.85103 18.3434 8.78415 18.2409 8.68007 18.1588C8.58528 18.084 8.48725 18.0496 8.38598 18.0557C8.28472 18.0617 8.1814 18.0933 8.07604 18.1504C7.97069 18.2075 7.86447 18.2752 7.75741 18.3536L7.3799 18.6257C7.13981 18.7981 6.90897 18.9025 6.68737 18.9387C6.46578 18.975 6.2588 18.9172 6.06643 18.7655C5.90659 18.6394 5.80128 18.4862 5.75052 18.3059C5.69956 18.124 5.69901 17.9336 5.74887 17.7347C5.79854 17.5341 5.89522 17.3428 6.03893 17.1606C6.1841 16.9766 6.34613 16.8391 6.52502 16.748C6.70299 16.6562 6.88165 16.6133 7.06101 16.6191C7.24111 16.624 7.40501 16.6809 7.55272 16.7899L7.28877 17.1244ZM9.49522 17.5269L9.21086 17.3026L8.21566 14.4819L8.37843 14.2756L8.81892 14.6231L8.70894 14.7625L9.46099 16.8938L9.48329 16.9114L10.8162 15.2219L11.1229 15.4639L9.49522 17.5269ZM11.1409 16.645L10.469 16.115L10.3366 16.0105L8.28604 14.3927L8.54559 14.0637L11.4004 16.3161L11.1409 16.645ZM9.9437 12.2114C10.037 12.095 10.1517 11.9955 10.2878 11.9129C10.4238 11.8302 10.5806 11.7806 10.7582 11.7638C10.9348 11.7464 11.1331 11.7769 11.353 11.8555C11.573 11.934 11.814 12.0767 12.0761 12.2835C12.3298 12.4836 12.5361 12.6856 12.695 12.8893C12.8537 13.0914 12.9648 13.2907 13.0285 13.4872C13.0928 13.6827 13.1093 13.8721 13.0778 14.0553C13.047 14.2376 12.9682 14.4091 12.8414 14.5699C12.7153 14.7298 12.5712 14.8475 12.409 14.9231C12.2466 14.997 12.0772 15.0292 11.9008 15.0197C11.7242 15.0085 11.5518 14.9547 11.3836 14.8582L11.652 14.5181C11.8072 14.5908 11.9635 14.6153 12.1208 14.5917C12.278 14.5664 12.416 14.4785 12.5347 14.328C12.7085 14.1077 12.7494 13.8581 12.6575 13.579C12.5663 13.299 12.3451 13.0204 11.9938 12.7432L11.9762 12.7655C12.0132 12.8792 12.0318 12.9941 12.0321 13.1104C12.0323 13.2267 12.0133 13.3406 11.975 13.4521C11.9368 13.5637 11.8788 13.6687 11.8011 13.7672C11.672 13.9308 11.5132 14.049 11.3246 14.1218C11.1357 14.193 10.938 14.2133 10.7313 14.1829C10.5244 14.1509 10.3289 14.0623 10.1449 13.9171C9.97021 13.7792 9.84116 13.6141 9.75778 13.4217C9.6742 13.2276 9.64528 13.0253 9.67104 12.815C9.69752 12.6037 9.78841 12.4025 9.9437 12.2114ZM10.2504 12.4533C10.158 12.5704 10.104 12.699 10.0885 12.839C10.0728 12.9774 10.0926 13.1129 10.1479 13.2454C10.2029 13.3763 10.2899 13.4887 10.4089 13.5825C10.5278 13.6764 10.6566 13.7358 10.7952 13.7607C10.9337 13.784 11.0676 13.7728 11.1971 13.7272C11.3264 13.6799 11.4372 13.5978 11.5296 13.4807C11.5992 13.3924 11.6469 13.2966 11.6727 13.1932C11.6975 13.0892 11.702 12.985 11.6864 12.8806C11.6705 12.7746 11.6368 12.6749 11.5853 12.5816C11.5329 12.4874 11.4645 12.407 11.3799 12.3403C11.2684 12.2523 11.1426 12.1968 11.0025 12.1737C10.8631 12.1497 10.7262 12.1608 10.5917 12.207C10.458 12.2523 10.3442 12.3344 10.2504 12.4533ZM11.8763 9.76183C11.9696 9.64547 12.0843 9.54598 12.2203 9.46334C12.3564 9.38071 12.5132 9.33103 12.6907 9.3143C12.8674 9.29683 13.0657 9.32738 13.2856 9.40594C13.5056 9.4845 13.7466 9.62716 14.0087 9.83392C14.2624 10.0341 14.4687 10.236 14.6276 10.4398C14.7863 10.6419 14.8974 10.8412 14.961 11.0376C15.0254 11.2332 15.0419 11.4225 15.0104 11.6058C14.9796 11.7881 14.9008 11.9596 14.774 12.1204C14.6479 12.2802 14.5037 12.3979 14.3416 12.4735C14.1792 12.5475 14.0098 12.5797 13.8334 12.5702C13.6567 12.559 13.4844 12.5051 13.3162 12.4087L13.5846 12.0685C13.7398 12.1412 13.8961 12.1658 14.0534 12.1422C14.2106 12.1169 14.3485 12.029 14.4673 11.8784C14.6411 11.6582 14.682 11.4085 14.5901 11.1294C14.4989 10.8494 14.2777 10.5708 13.9264 10.2937L13.9088 10.316C13.9458 10.4296 13.9644 10.5446 13.9646 10.6609C13.9649 10.7771 13.9459 10.8911 13.9076 11.0026C13.8694 11.1142 13.8114 11.2192 13.7337 11.3177C13.6046 11.4812 13.4458 11.5994 13.2572 11.6723C13.0683 11.7434 12.8706 11.7638 12.6639 11.7334C12.457 11.7013 12.2615 11.6127 12.0775 11.4676C11.9028 11.3297 11.7738 11.1646 11.6904 10.9721C11.6068 10.778 11.5779 10.5758 11.6036 10.3654C11.6301 10.1541 11.721 9.95293 11.8763 9.76183ZM12.183 10.0038C12.0906 10.1209 12.0366 10.2494 12.0211 10.3895C12.0054 10.5279 12.0252 10.6634 12.0804 10.7959C12.1355 10.9268 12.2225 11.0392 12.3415 11.133C12.4604 11.2268 12.5892 11.2862 12.7278 11.3112C12.8663 11.3345 13.0002 11.3233 13.1297 11.2777C13.259 11.2304 13.3698 11.1482 13.4622 11.0311C13.5318 10.9428 13.5795 10.847 13.6053 10.7437C13.6301 10.6396 13.6346 10.5354 13.619 10.4311C13.6031 10.3251 13.5694 10.2254 13.5179 10.132C13.4655 10.0379 13.3971 9.95748 13.3125 9.89076C13.201 9.80278 13.0752 9.74725 12.9351 9.72416C12.7957 9.70015 12.6588 9.71124 12.5243 9.75745C12.3906 9.80272 12.2768 9.88483 12.183 10.0038Z" fill="black"/>
</svg>
