<svg width="43" height="55" viewBox="0 0 43 55" fill="none" xmlns="http://www.w3.org/2000/svg">
<path d="M8.40826 32.542L8.85466 25.5112L19.0051 11.847L25.7875 10.5148L8.40826 32.542Z" stroke="#D0A54C" stroke-width="14"/>
<path d="M12.212 37.0327L3.91752 29.9468L4.37145 29.4155L12.666 36.5013L12.212 37.0327ZM7.93376 30.2841C7.57222 30.0425 7.18263 29.9824 6.76499 30.1039C6.34736 30.2254 5.96693 30.487 5.62371 30.8888C5.37275 31.1826 5.20068 31.4802 5.10751 31.7817C5.01617 32.0811 5.00108 32.3633 5.06222 32.6286C5.12521 32.8916 5.26254 33.1135 5.47423 33.2944C5.65135 33.4457 5.83961 33.5337 6.03902 33.5583C6.23811 33.5789 6.43698 33.5583 6.63563 33.4963C6.83212 33.4325 7.0201 33.3502 7.19958 33.2495C7.3769 33.1469 7.53435 33.0479 7.67193 32.9524L8.4291 32.4335C8.62208 32.2994 8.84895 32.1607 9.10971 32.0173C9.37232 31.8717 9.65578 31.7608 9.96009 31.6845C10.2641 31.6042 10.5775 31.5916 10.9002 31.6469C11.2229 31.7021 11.5398 31.8626 11.8508 32.1283C12.2094 32.4346 12.4531 32.8054 12.582 33.2406C12.7128 33.6736 12.7103 34.1423 12.5746 34.6466C12.4408 35.1488 12.1561 35.6548 11.7207 36.1646C11.3147 36.6398 10.8865 36.9857 10.436 37.2025C9.98743 37.4171 9.54109 37.5066 9.097 37.4709C8.65475 37.4331 8.24112 37.2722 7.85609 36.9881L8.56467 36.1587C8.83369 36.3511 9.11302 36.444 9.40266 36.4374C9.69199 36.4267 9.97349 36.3422 10.2472 36.1836C10.5205 36.0211 10.7698 35.8081 10.9949 35.5445C11.2569 35.2378 11.4425 34.92 11.5517 34.591C11.6587 34.2602 11.6834 33.9469 11.6259 33.6512C11.5663 33.3536 11.4155 33.1015 11.1735 32.8949C10.9532 32.7066 10.7213 32.615 10.4779 32.6201C10.2345 32.6251 9.98379 32.6911 9.72578 32.8182C9.46776 32.9453 9.20671 33.0978 8.94262 33.2757L8.01183 33.8929C7.41992 34.284 6.85655 34.5126 6.32173 34.5788C5.78691 34.6451 5.29593 34.4872 4.84881 34.1052C4.47728 33.7878 4.23908 33.4106 4.13421 32.9735C4.02902 32.5324 4.04552 32.0757 4.18371 31.6034C4.32159 31.1271 4.57137 30.6773 4.93304 30.2539C5.2984 29.8262 5.69985 29.5116 6.13739 29.31C6.57276 29.1065 7.00525 29.0201 7.43485 29.0508C7.86629 29.0794 8.25403 29.2313 8.59806 29.5065L7.93376 30.2841ZM13.7332 30.8171L13.0722 30.2525L10.9495 23.3949L11.3591 22.9154L12.383 23.79L12.1062 24.1141L13.7103 29.2956L13.7622 29.3398L17.1169 25.4129L17.8297 26.0218L13.7332 30.8171ZM17.7623 28.8562L16.2006 27.5221L15.8927 27.2591L11.1266 23.1876L11.7799 22.4229L18.4155 28.0916L17.7623 28.8562ZM15.8517 17.4728C16.0864 17.2025 16.3707 16.9746 16.7048 16.7892C17.0388 16.6037 17.4195 16.4993 17.8468 16.4757C18.272 16.4504 18.7447 16.5422 19.2649 16.7512C19.7851 16.9602 20.3497 17.3248 20.9588 17.8452C21.5485 18.349 22.0244 18.8526 22.3863 19.3561C22.748 19.8556 22.9959 20.344 23.1301 20.821C23.2662 21.296 23.2879 21.7517 23.1953 22.1881C23.1045 22.6225 22.8994 23.0265 22.5802 23.4002C22.2628 23.7717 21.9061 24.0405 21.5101 24.2066C21.1138 24.3688 20.7046 24.4301 20.2823 24.3908C19.8598 24.3474 19.4514 24.2022 19.0572 23.9551L19.7326 23.1645C20.0981 23.3534 20.4706 23.4269 20.8501 23.385C21.2294 23.3391 21.5685 23.1411 21.8674 22.7912C22.3047 22.2793 22.4262 21.6844 22.2319 21.0065C22.0394 20.3264 21.5349 19.6376 20.7185 18.9401L20.6742 18.992C20.7523 19.2679 20.7862 19.5454 20.7758 19.8242C20.7655 20.1031 20.7093 20.3745 20.6071 20.6385C20.5049 20.9024 20.356 21.1489 20.1604 21.3778C19.8357 21.758 19.4437 22.0266 18.9845 22.1835C18.525 22.3365 18.0488 22.3669 17.556 22.2747C17.0628 22.1784 16.6024 21.9476 16.1747 21.5822C15.7686 21.2353 15.4746 20.8272 15.2926 20.3579C15.1103 19.8846 15.0599 19.3969 15.1413 18.8948C15.2246 18.3905 15.4614 17.9165 15.8517 17.4728ZM16.5645 18.0817C16.332 18.3539 16.1906 18.6572 16.1403 18.9916C16.0897 19.322 16.1245 19.6487 16.2446 19.9718C16.3644 20.2908 16.5625 20.5684 16.839 20.8046C17.1154 21.0408 17.4188 21.1953 17.7489 21.2681C18.0787 21.3369 18.401 21.3226 18.7158 21.2254C19.0302 21.1241 19.3037 20.9374 19.5362 20.6652C19.7115 20.46 19.8348 20.2347 19.9062 19.9893C19.9755 19.7421 19.9962 19.4926 19.9683 19.2409C19.9402 18.9852 19.8687 18.7429 19.754 18.5142C19.6372 18.2836 19.4805 18.0843 19.2839 17.9164C19.0247 17.695 18.7282 17.55 18.3944 17.4815C18.0624 17.4109 17.733 17.4247 17.4062 17.5229C17.0813 17.619 16.8007 17.8052 16.5645 18.0817ZM21.2612 11.1405C21.4959 10.8702 21.7803 10.6423 22.1143 10.4569C22.4483 10.2715 22.829 10.167 23.2563 10.1435C23.6815 10.1181 24.1542 10.21 24.6744 10.4189C25.1946 10.6279 25.7592 10.9926 26.3684 11.513C26.9581 12.0167 27.4339 12.5204 27.7959 13.0239C28.1575 13.5234 28.4054 14.0117 28.5397 14.4888C28.6757 14.9637 28.6974 15.4194 28.6048 15.8559C28.514 16.2902 28.309 16.6942 27.9897 17.0679C27.6723 17.4394 27.3157 17.7083 26.9197 17.8744C26.5233 18.0365 26.1141 18.0979 25.6919 18.0585C25.2693 18.0152 24.861 17.8699 24.4668 17.6228L25.1421 16.8323C25.5076 17.0212 25.8801 17.0947 26.2597 17.0527C26.6389 17.0068 26.978 16.8089 27.2769 16.459C27.7142 15.947 27.8358 15.3521 27.6414 14.6742C27.449 13.9942 26.9445 13.3054 26.128 12.6079L26.0837 12.6597C26.1618 12.9357 26.1957 13.2131 26.1854 13.492C26.175 13.7709 26.1188 14.0423 26.0166 14.3062C25.9144 14.5702 25.7656 14.8166 25.57 15.0456C25.2452 15.4257 24.8532 15.6943 24.394 15.8513C23.9345 16.0043 23.4584 16.0347 22.9655 15.9424C22.4723 15.8462 22.0119 15.6153 21.5842 15.25C21.1781 14.9031 20.8841 14.495 20.7021 14.0257C20.5198 13.5523 20.4694 13.0646 20.5509 12.5626C20.6342 12.0583 20.871 11.5843 21.2612 11.1405ZM21.9741 11.7495C21.7416 12.0216 21.6002 12.3249 21.5499 12.6594C21.4993 12.9898 21.534 13.3165 21.6541 13.6395C21.7739 13.9586 21.972 14.2362 22.2485 14.4724C22.525 14.7086 22.8283 14.8631 23.1584 14.9359C23.4882 15.0046 23.8105 14.9904 24.1253 14.8931C24.4397 14.7918 24.7132 14.6051 24.9457 14.333C25.121 14.1278 25.2444 13.9025 25.3158 13.6571C25.385 13.4098 25.4057 13.1603 25.3778 12.9086C25.3497 12.6529 25.2783 12.4107 25.1636 12.1819C25.0467 11.9513 24.89 11.7521 24.6934 11.5841C24.4342 11.3627 24.1377 11.2178 23.8039 11.1493C23.4719 11.0787 23.1425 11.0924 22.8157 11.1907C22.4908 11.2867 22.2103 11.473 21.9741 11.7495Z" fill="black"/>
</svg>
